<?xml version="1.0" encoding="utf-8"?>
<!-- Generator: Adobe Illustrator 16.0.0, SVG Export Plug-In . SVG Version: 6.00 Build 0)  -->
<!DOCTYPE svg PUBLIC "-//W3C//DTD SVG 1.1//EN" "http://www.w3.org/Graphics/SVG/1.1/DTD/svg11.dtd">
<svg version="1.1" id="Layer_1" xmlns="http://www.w3.org/2000/svg" xmlns:xlink="http://www.w3.org/1999/xlink" x="0px" y="0px"
	 width="59.831px" height="99.92px" viewBox="-50.536 -39.524 59.831 99.92" enable-background="new -50.536 -39.524 59.831 99.92"
	 xml:space="preserve">
<path fill-rule="evenodd" clip-rule="evenodd" fill="#C1C6DE" d="M-38.858-39.68c0.224,1.149,1.159,1.988,2.521,2.136
	c0.602,0.065,1.223-0.061,1.836-0.086c0.159-0.007,0.328,0.015,0.479,0.064c0.45,0.146,0.893,0.312,1.41,0.496
	c-0.173-0.437-0.325-0.748-0.413-1.075c-0.037-0.137,0.041-0.317,0.1-0.465c0.145-0.36,0.308-0.713,0.464-1.069
	c0.049,0,0.099,0,0.148,0c-0.147,0.36-0.26,0.74-0.454,1.072c-0.117,0.201-0.189,0.364-0.089,0.572
	c0.158,0.327,0.323,0.651,0.506,1.017c-0.583,0.006-1.128-0.111-1.657-0.364c-0.167-0.08-0.396-0.114-0.575-0.075
	c-1.161,0.256-2.261,0.146-3.276-0.499c-0.635-0.403-1.043-0.966-1.148-1.724C-38.958-39.68-38.908-39.68-38.858-39.68z"/>
<path fill-rule="evenodd" clip-rule="evenodd" fill="#C1C6DE" d="M-9.106-39.68c0.228,1.153,1.151,1.983,2.522,2.136
	c0.601,0.067,1.223-0.062,1.835-0.087c0.159-0.006,0.327,0.016,0.479,0.065c0.449,0.146,0.893,0.312,1.41,0.494
	c-0.173-0.435-0.325-0.746-0.414-1.073c-0.037-0.137,0.041-0.317,0.1-0.465c0.145-0.36,0.308-0.713,0.464-1.069
	c0.049,0,0.099,0,0.149,0c-0.147,0.36-0.26,0.739-0.454,1.072c-0.117,0.201-0.189,0.364-0.089,0.572
	c0.158,0.327,0.323,0.651,0.504,1.016c-0.583,0.011-1.127-0.111-1.657-0.363c-0.168-0.08-0.395-0.113-0.575-0.075
	c-1.287,0.274-2.48,0.126-3.544-0.696c-0.501-0.388-0.789-0.901-0.88-1.526C-9.205-39.68-9.156-39.68-9.106-39.68z"/>
<path fill-rule="evenodd" clip-rule="evenodd" fill="#C1C6DE" d="M-23.982-39.68c0.228,1.152,1.158,1.988,2.522,2.136
	c0.601,0.065,1.223-0.062,1.835-0.087c0.16-0.007,0.329,0.015,0.48,0.065c0.45,0.146,0.893,0.312,1.408,0.494
	c-0.172-0.435-0.324-0.746-0.412-1.074c-0.037-0.137,0.042-0.317,0.101-0.465c0.144-0.36,0.308-0.713,0.464-1.069
	c0.049,0,0.099,0,0.148,0c-0.146,0.36-0.26,0.739-0.454,1.072c-0.117,0.201-0.19,0.363-0.089,0.572
	c0.158,0.327,0.323,0.65,0.505,1.016c-0.584,0.009-1.129-0.112-1.658-0.364c-0.167-0.08-0.396-0.113-0.575-0.074
	c-1.175,0.257-2.284,0.143-3.307-0.52c-0.622-0.402-1.011-0.962-1.117-1.703C-24.082-39.68-24.032-39.68-23.982-39.68z"/>
<path fill-rule="evenodd" clip-rule="evenodd" fill="#C1C6DE" d="M-50.536-37.461c0.012-0.001,0.025-0.002,0.037-0.004
	c0.834-0.176,1.652-0.225,2.438,0.213c0.147,0.082,0.352,0.063,0.535,0.091c-0.138-0.35-0.288-0.661-0.375-0.988
	c-0.037-0.137,0.043-0.316,0.102-0.463c0.144-0.36,0.307-0.712,0.462-1.067c0.049,0,0.099,0,0.148,0
	c-0.14,0.351-0.233,0.731-0.435,1.042c-0.157,0.241-0.201,0.44-0.086,0.677c0.147,0.305,0.314,0.602,0.495,0.944
	c-0.612,0.002-1.174-0.111-1.71-0.39c-0.134-0.07-0.318-0.081-0.474-0.065c-0.381,0.037-0.758,0.104-1.137,0.159
	C-50.536-37.362-50.536-37.412-50.536-37.461z"/>
<path fill-rule="evenodd" clip-rule="evenodd" fill="#C1C6DE" d="M5.771-39.68c0.226,1.156,1.167,1.957,2.539,2.154
	c0.219,0.031,0.44,0.044,0.66,0.065c0,0.049,0,0.099,0,0.148c-0.746-0.044-1.467-0.181-2.113-0.583
	c-0.672-0.417-1.123-0.984-1.235-1.784C5.673-39.68,5.722-39.68,5.771-39.68z"/>
<g>
	<path fill-rule="evenodd" clip-rule="evenodd" fill="#C1C6DE" d="M-50.536,6.924c0.012-0.002,0.025-0.002,0.037-0.004
		c0.85-0.191,1.68-0.207,2.477,0.221c0.133,0.07,0.311,0.059,0.501,0.092c-0.138-0.346-0.286-0.648-0.374-0.969
		c-0.039-0.139-0.005-0.348,0.08-0.465c0.758-1.042,0.595-2.172-0.458-2.929c-0.672-0.484-1.429-0.715-2.263-0.681
		c0-0.049,0-0.099,0-0.147c0.951-0.01,1.809,0.251,2.541,0.869c0.925,0.782,1.052,1.929,0.35,2.909
		c-0.09,0.125-0.135,0.354-0.086,0.492c0.125,0.352,0.317,0.68,0.5,1.055c-0.596,0.004-1.158-0.113-1.694-0.389
		c-0.134-0.07-0.318-0.082-0.474-0.066c-0.381,0.037-0.758,0.105-1.137,0.16C-50.536,7.023-50.536,6.973-50.536,6.924z"/>
	<path fill-rule="evenodd" clip-rule="evenodd" fill="#C1C6DE" d="M-50.536-7.871c0.012-0.002,0.025-0.002,0.037-0.005
		c0.85-0.191,1.68-0.205,2.477,0.222c0.133,0.071,0.311,0.059,0.501,0.092c-0.138-0.347-0.286-0.648-0.374-0.968
		c-0.039-0.14-0.005-0.349,0.08-0.466c0.758-1.042,0.593-2.176-0.457-2.929c-0.673-0.482-1.429-0.715-2.263-0.68
		c0-0.049,0-0.099,0-0.148c0.951-0.009,1.809,0.252,2.541,0.871c0.925,0.78,1.052,1.929,0.35,2.909
		c-0.09,0.125-0.135,0.352-0.086,0.491c0.125,0.352,0.317,0.68,0.5,1.055c-0.597,0.005-1.158-0.114-1.694-0.389
		c-0.135-0.068-0.319-0.08-0.474-0.065c-0.381,0.037-0.759,0.104-1.137,0.16C-50.536-7.773-50.536-7.821-50.536-7.871z"/>
	<path fill-rule="evenodd" clip-rule="evenodd" fill="#C1C6DE" d="M-50.536-22.666c0.012-0.002,0.025-0.003,0.037-0.005
		c0.85-0.192,1.68-0.205,2.477,0.222c0.133,0.071,0.311,0.059,0.502,0.091c-0.139-0.345-0.287-0.647-0.375-0.966
		c-0.04-0.141-0.006-0.35,0.08-0.467c0.758-1.045,0.597-2.166-0.458-2.928c-0.671-0.486-1.429-0.715-2.263-0.681
		c0-0.049,0-0.098,0-0.148c0.951-0.009,1.809,0.251,2.541,0.87c0.925,0.781,1.052,1.93,0.349,2.91
		c-0.089,0.125-0.134,0.353-0.085,0.492c0.126,0.352,0.317,0.68,0.5,1.052c-0.597,0.01-1.156-0.115-1.694-0.387
		c-0.135-0.068-0.318-0.082-0.473-0.067c-0.381,0.037-0.758,0.105-1.137,0.161C-50.536-22.567-50.536-22.617-50.536-22.666z"/>
	<path fill-rule="evenodd" clip-rule="evenodd" fill="#C1C6DE" d="M8.97,2.189C8.043,2.162,7.206,2.417,6.511,3.034
		C5.47,3.958,5.529,5.285,6.621,6.148C7.311,6.691,8.113,6.885,8.97,6.924c0,0.049,0,0.1,0,0.148
		C8.051,7.02,7.192,6.809,6.464,6.201C5.366,5.289,5.347,3.827,6.433,2.908C7.163,2.29,8.021,2.034,8.97,2.042
		C8.97,2.091,8.97,2.14,8.97,2.189z"/>
	<path fill-rule="evenodd" clip-rule="evenodd" fill="#C1C6DE" d="M8.97-27.4c-0.942-0.028-1.789,0.236-2.486,0.87
		c-1.004,0.912-0.946,2.21,0.108,3.066c0.693,0.562,1.508,0.76,2.378,0.799c0,0.049,0,0.098,0,0.148
		c-0.919-0.053-1.779-0.262-2.506-0.87c-1.109-0.929-1.117-2.396-0.002-3.317c0.727-0.601,1.573-0.853,2.508-0.843
		C8.97-27.499,8.97-27.45,8.97-27.4z"/>
	<path fill-rule="evenodd" clip-rule="evenodd" fill="#C1C6DE" d="M8.97-12.605c-0.94-0.027-1.789,0.235-2.486,0.869
		c-1.004,0.913-0.946,2.21,0.108,3.066C7.283-8.108,8.1-7.909,8.97-7.871c0,0.05,0,0.098,0,0.148
		c-0.933-0.052-1.803-0.27-2.535-0.893c-1.068-0.909-1.074-2.368-0.002-3.271c0.73-0.616,1.589-0.875,2.537-0.866
		C8.97-12.705,8.97-12.654,8.97-12.605z"/>
	<path fill-rule="evenodd" clip-rule="evenodd" fill="#C1C6DE" d="M-24.919,14.764c-0.569,0.012-1.115-0.08-1.604-0.359
		c-0.239-0.137-0.436-0.133-0.694-0.078c-1.402,0.297-2.701,0.1-3.741-0.963c-0.871-0.887-0.797-2.145,0.121-2.99
		c1.353-1.246,3.828-1.262,5.195-0.033c0.897,0.807,1.003,1.906,0.299,2.885c-0.084,0.117-0.127,0.334-0.08,0.463
		C-25.296,14.041-25.107,14.373-24.919,14.764z M-25.264,14.68c0.019-0.037,0.037-0.076,0.055-0.113
		c-0.091-0.186-0.186-0.371-0.271-0.559c-0.16-0.355-0.175-0.656,0.1-1.014c0.593-0.775,0.448-1.779-0.279-2.473
		c-1.263-1.207-3.624-1.279-4.958-0.15c-1.09,0.92-1.084,2.287,0.044,3.164c1.043,0.811,2.229,0.926,3.488,0.629
		c0.158-0.037,0.348,0.012,0.51,0.063C-26.134,14.365-25.701,14.527-25.264,14.68z"/>
	<path fill-rule="evenodd" clip-rule="evenodd" fill="#C1C6DE" d="M-32.396-7.346c-0.507-0.136-1.036-0.224-1.514-0.427
		c-0.285-0.122-0.509-0.139-0.8-0.079c-1.248,0.258-2.42,0.086-3.438-0.73c-1.142-0.915-1.136-2.419,0-3.346
		c1.393-1.136,3.66-1.117,5.029,0.042c0.891,0.754,1.073,1.905,0.396,2.808c-0.207,0.277-0.216,0.508-0.086,0.775
		c0.138,0.284,0.303,0.554,0.456,0.831C-32.368-7.429-32.381-7.387-32.396-7.346z M-32.613-7.487
		c-0.172-0.43-0.319-0.74-0.414-1.066c-0.037-0.129-0.005-0.334,0.079-0.434c0.759-0.895,0.659-2.106-0.442-2.934
		c-1.259-0.947-3.311-0.935-4.563,0.016c-1.216,0.924-1.217,2.405,0.015,3.306c1.031,0.751,2.181,0.857,3.399,0.574
		c0.167-0.039,0.37,0.015,0.543,0.067C-33.554-7.821-33.12-7.661-32.613-7.487z"/>
	<path fill-rule="evenodd" clip-rule="evenodd" fill="#C1C6DE" d="M-17.488-7.427c-0.581,0.004-1.133-0.118-1.665-0.376
		c-0.156-0.076-0.372-0.104-0.542-0.068c-1.315,0.282-2.528,0.12-3.605-0.739c-1.058-0.843-1.101-2.306-0.087-3.222
		c1.373-1.239,3.809-1.245,5.195-0.011c0.882,0.786,0.992,1.973,0.284,2.889c-0.08,0.104-0.128,0.301-0.086,0.417
		C-17.86-8.174-17.676-7.829-17.488-7.427z M-17.721-7.485c-0.175-0.405-0.323-0.679-0.407-0.97
		c-0.044-0.154-0.037-0.384,0.05-0.504c0.761-1.04,0.627-2.131-0.382-2.924c-1.257-0.987-3.403-0.985-4.657,0.006
		c-1.189,0.94-1.154,2.433,0.091,3.307c1.031,0.724,2.168,0.822,3.371,0.543c0.166-0.039,0.369,0.022,0.542,0.075
		C-18.673-7.817-18.241-7.662-17.721-7.485z"/>
	<path fill-rule="evenodd" clip-rule="evenodd" fill="#C1C6DE" d="M-2.602-7.429c-0.588,0.005-1.14-0.113-1.671-0.374
		c-0.157-0.077-0.374-0.106-0.543-0.069c-1.291,0.283-2.496,0.14-3.556-0.69c-1.17-0.916-1.169-2.431-0.018-3.37
		c1.378-1.123,3.629-1.11,5,0.029c0.947,0.788,1.083,1.939,0.369,2.936C-3.11-8.843-3.15-8.614-3.1-8.474
		C-2.974-8.124-2.782-7.796-2.602-7.429z M-2.833-7.479c-0.169-0.374-0.316-0.61-0.378-0.866c-0.05-0.205-0.079-0.492,0.027-0.643
		c0.748-1.065,0.594-2.159-0.456-2.938c-1.264-0.939-3.313-0.929-4.564,0.024c-1.199,0.912-1.21,2.388-0.006,3.284
		c1.036,0.77,2.198,0.877,3.431,0.591c0.167-0.038,0.37,0.019,0.543,0.072C-3.797-7.818-3.364-7.661-2.833-7.479z"/>
	<path fill-rule="evenodd" clip-rule="evenodd" fill="#C1C6DE" d="M-32.33-22.222c-0.599,0.001-1.15-0.079-1.642-0.367
		c-0.225-0.132-0.417-0.133-0.659-0.079c-1.273,0.292-2.468,0.125-3.511-0.704c-1.149-0.912-1.146-2.411-0.012-3.346
		c1.389-1.146,3.702-1.121,5.058,0.055c0.867,0.751,1.041,1.896,0.378,2.785c-0.202,0.272-0.23,0.502-0.094,0.774
		C-32.67-22.821-32.509-22.548-32.33-22.222z M-32.613-22.283c-0.177-0.44-0.321-0.741-0.412-1.057
		c-0.037-0.131-0.011-0.337,0.074-0.435c0.818-0.956,0.618-2.228-0.552-3.022c-1.263-0.858-3.181-0.823-4.414,0.07
		c-1.243,0.901-1.264,2.42-0.027,3.328c1.028,0.755,2.178,0.861,3.398,0.583c0.177-0.041,0.391,0.024,0.575,0.079
		C-33.541-22.607-33.116-22.453-32.613-22.283z"/>
	<path fill-rule="evenodd" clip-rule="evenodd" fill="#C1C6DE" d="M-2.602-22.222c-0.58,0-1.132-0.079-1.622-0.369
		c-0.226-0.134-0.418-0.128-0.659-0.074c-1.289,0.29-2.492,0.12-3.539-0.734c-1.107-0.904-1.103-2.385-0.005-3.297
		c1.396-1.159,3.679-1.151,5.057,0.017c0.925,0.784,1.055,1.931,0.353,2.911c-0.09,0.125-0.136,0.353-0.086,0.492
		C-2.977-22.926-2.785-22.598-2.602-22.222z M-2.862-22.274c-0.177-0.452-0.324-0.764-0.416-1.092
		c-0.035-0.127,0.013-0.319,0.094-0.431c0.724-0.99,0.612-2.014-0.323-2.816c-1.256-1.078-3.575-1.068-4.824,0.02
		c-1.074,0.936-1.04,2.312,0.101,3.168c1.044,0.784,2.217,0.896,3.462,0.601c0.157-0.037,0.349,0.012,0.511,0.063
		C-3.816-22.622-3.383-22.458-2.862-22.274z"/>
	<path fill-rule="evenodd" clip-rule="evenodd" fill="#C1C6DE" d="M4.833-29.624c-0.576,0.018-1.124-0.088-1.626-0.366
		c-0.211-0.117-0.385-0.139-0.623-0.083c-1.299,0.307-2.521,0.138-3.572-0.729c-1.102-0.91-1.098-2.338-0.025-3.274
		c1.37-1.194,3.794-1.171,5.139,0.046c0.877,0.794,0.981,1.902,0.292,2.858c-0.09,0.125-0.131,0.354-0.081,0.495
		C4.463-30.324,4.653-29.995,4.833-29.624z M4.491-29.706c0.02-0.04,0.039-0.079,0.059-0.119c-0.074-0.14-0.157-0.276-0.222-0.42
		c-0.182-0.402-0.268-0.75,0.065-1.182c0.583-0.756,0.417-1.747-0.302-2.439c-1.276-1.228-3.679-1.274-5.012-0.096
		c-1.026,0.907-1.006,2.244,0.073,3.092c1.051,0.826,2.245,0.95,3.519,0.648c0.156-0.037,0.347,0.014,0.509,0.064
		C3.621-30.018,4.055-29.857,4.491-29.706z"/>
	<path fill-rule="evenodd" clip-rule="evenodd" fill="#C1C6DE" d="M-10.042,14.764c-0.582,0.012-1.137-0.088-1.637-0.377
		c-0.216-0.123-0.393-0.119-0.625-0.07c-1.415,0.311-2.726,0.119-3.777-0.951c-0.863-0.877-0.801-2.111,0.091-2.965
		c1.356-1.299,3.963-1.291,5.304,0.014c0.814,0.791,0.899,1.875,0.245,2.779c-0.096,0.135-0.144,0.377-0.093,0.525
		C-10.418,14.064-10.228,14.383-10.042,14.764z M-10.384,14.676c0.016-0.039,0.032-0.08,0.047-0.121
		c-0.086-0.174-0.175-0.348-0.258-0.525c-0.171-0.365-0.184-0.676,0.097-1.045c0.589-0.775,0.438-1.777-0.293-2.471
		c-1.183-1.123-3.348-1.268-4.72-0.318c-1.404,0.973-1.384,2.602,0.058,3.52c0.996,0.633,2.078,0.721,3.214,0.459
		c0.178-0.041,0.392,0.02,0.577,0.074C-11.232,14.377-10.81,14.531-10.384,14.676z"/>
	<path fill-rule="evenodd" clip-rule="evenodd" fill="#C1C6DE" d="M4.858-0.032C4.248-0.022,3.706-0.148,3.18-0.396
		c-0.168-0.08-0.396-0.111-0.578-0.074C1.169-0.175-0.151-0.352-1.211-1.436c-0.862-0.882-0.793-2.113,0.104-2.965
		C0.246-5.688,2.812-5.687,4.17-4.399C5.004-3.61,5.114-2.5,4.412-1.604C4.217-1.355,4.28-1.142,4.379-0.922
		C4.508-0.634,4.678-0.363,4.858-0.032z M4.481-0.116c0.021-0.035,0.043-0.07,0.064-0.105C4.451-0.419,4.352-0.615,4.261-0.815
		C4.106-1.16,4.107-1.452,4.369-1.795c0.6-0.786,0.452-1.794-0.296-2.499C2.815-5.48,0.466-5.544-0.858-4.43
		c-1.105,0.929-1.093,2.308,0.06,3.188C0.239-0.45,1.414-0.336,2.659-0.628C2.817-0.665,3.008-0.624,3.17-0.572
		C3.611-0.433,4.045-0.27,4.481-0.116z"/>
	<path fill-rule="evenodd" clip-rule="evenodd" fill="#C1C6DE" d="M-32.355,7.367c-0.585,0.004-1.134-0.113-1.665-0.373
		c-0.157-0.076-0.373-0.109-0.542-0.072c-1.29,0.283-2.496,0.143-3.558-0.686c-1.172-0.914-1.175-2.433-0.026-3.37
		c1.391-1.136,3.667-1.115,5.028,0.044c0.923,0.786,1.051,1.929,0.348,2.911c-0.089,0.125-0.133,0.354-0.083,0.492
		C-32.728,6.666-32.537,6.994-32.355,7.367z M-32.616,7.314c-0.175-0.449-0.322-0.762-0.413-1.09
		c-0.035-0.127,0.011-0.32,0.092-0.432c0.736-1.006,0.602-2.081-0.376-2.865c-1.251-1.004-3.426-1.006-4.685-0.006
		c-1.166,0.927-1.155,2.376,0.044,3.261c1.038,0.766,2.2,0.873,3.432,0.582c0.157-0.037,0.349,0.01,0.511,0.061
		C-33.57,6.967-33.137,7.131-32.616,7.314z"/>
	<path fill-rule="evenodd" clip-rule="evenodd" fill="#C1C6DE" d="M-17.479-22.222c-0.575,0.003-1.133-0.081-1.631-0.374
		c-0.215-0.126-0.395-0.129-0.624-0.076c-1.287,0.297-2.492,0.133-3.545-0.711c-1.129-0.904-1.128-2.4-0.015-3.322
		c1.383-1.146,3.649-1.142,5.028,0.007c0.947,0.79,1.081,1.937,0.367,2.937c-0.089,0.124-0.127,0.353-0.077,0.493
		C-17.849-22.917-17.658-22.589-17.479-22.222z M-17.74-22.274c-0.176-0.451-0.322-0.764-0.414-1.092
		c-0.035-0.127,0.012-0.319,0.094-0.431c0.724-0.989,0.613-2.016-0.322-2.816c-1.259-1.078-3.575-1.069-4.825,0.019
		c-1.075,0.936-1.042,2.312,0.1,3.168c1.044,0.784,2.217,0.897,3.462,0.601c0.157-0.037,0.349,0.012,0.51,0.063
		C-18.693-22.622-18.26-22.458-17.74-22.274z"/>
	<path fill-rule="evenodd" clip-rule="evenodd" fill="#C1C6DE" d="M-10.043-14.827c-0.583,0.01-1.13-0.085-1.623-0.367
		c-0.226-0.13-0.415-0.126-0.659-0.074c-1.401,0.304-2.702,0.111-3.746-0.945c-0.878-0.888-0.814-2.14,0.096-2.992
		c1.359-1.272,3.891-1.275,5.25-0.006c0.854,0.798,0.949,1.892,0.27,2.832c-0.09,0.125-0.134,0.354-0.085,0.495
		C-10.416-15.532-10.225-15.203-10.043-14.827z M-10.392-14.911c0.022-0.041,0.042-0.081,0.063-0.12
		c-0.074-0.14-0.155-0.277-0.22-0.42c-0.185-0.403-0.265-0.752,0.066-1.182c0.582-0.755,0.415-1.753-0.303-2.438
		c-1.263-1.206-3.616-1.276-4.956-0.148c-1.09,0.918-1.084,2.288,0.044,3.164c1.043,0.81,2.228,0.927,3.487,0.63
		c0.157-0.037,0.348,0.009,0.51,0.06C-11.26-15.226-10.828-15.063-10.392-14.911z"/>
	<path fill-rule="evenodd" clip-rule="evenodd" fill="#C1C6DE" d="M-24.916-29.622c-0.575,0.012-1.119-0.084-1.613-0.359
		c-0.222-0.124-0.408-0.143-0.657-0.087c-1.414,0.313-2.727,0.12-3.775-0.955c-0.863-0.886-0.796-2.116,0.098-2.966
		c1.354-1.287,3.925-1.288,5.277-0.003c0.836,0.794,0.928,1.888,0.264,2.808c-0.096,0.132-0.138,0.375-0.087,0.526
		C-25.292-30.316-25.101-29.998-24.916-29.622z M-25.248-29.706c0.016-0.033,0.031-0.066,0.047-0.098
		c-0.086-0.174-0.18-0.346-0.258-0.523c-0.165-0.373-0.215-0.692,0.087-1.081c0.587-0.759,0.437-1.75-0.275-2.442
		c-1.271-1.235-3.678-1.296-5.012-0.127c-1.045,0.917-1.027,2.26,0.069,3.117c1.042,0.814,2.225,0.935,3.485,0.646
		c0.168-0.039,0.371,0.013,0.543,0.066C-26.118-30.014-25.685-29.855-25.248-29.706z"/>
	<path fill-rule="evenodd" clip-rule="evenodd" fill="#C1C6DE" d="M-10.039-29.623c-0.592,0.011-1.134-0.117-1.66-0.364
		c-0.168-0.079-0.396-0.109-0.578-0.071c-1.434,0.292-2.753,0.115-3.813-0.97c-0.858-0.88-0.789-2.117,0.108-2.966
		c1.358-1.284,3.925-1.282,5.277,0.005c0.833,0.792,0.921,1.884,0.255,2.808c-0.095,0.132-0.135,0.375-0.083,0.527
		C-10.414-30.311-10.222-29.995-10.039-29.623z M-10.39-29.706c0.012-0.038,0.024-0.075,0.037-0.112
		c-0.12-0.294-0.272-0.58-0.345-0.885c-0.039-0.161,0.01-0.393,0.109-0.529c0.672-0.925,0.596-1.96-0.286-2.703
		c-1.178-0.993-2.527-1.103-3.938-0.602c-0.362,0.129-0.711,0.354-1.004,0.606c-0.985,0.851-0.985,2.142,0.008,2.986
		c1.055,0.896,2.285,1.03,3.6,0.724c0.157-0.037,0.348,0.011,0.51,0.062C-11.259-30.02-10.826-29.858-10.39-29.706z"/>
	<path fill-rule="evenodd" clip-rule="evenodd" fill="#C1C6DE" d="M-39.769-29.622c-0.614,0.007-1.156-0.115-1.682-0.365
		c-0.168-0.08-0.396-0.109-0.578-0.072c-1.42,0.291-2.729,0.118-3.788-0.943c-0.884-0.886-0.825-2.129,0.083-2.992
		c1.351-1.284,3.931-1.282,5.277,0.005c0.833,0.796,0.941,1.898,0.238,2.795c-0.196,0.25-0.128,0.465-0.031,0.684
		C-40.121-30.22-39.951-29.951-39.769-29.622z M-40.138-29.704c0.019-0.04,0.037-0.079,0.054-0.118
		c-0.086-0.175-0.179-0.348-0.259-0.525c-0.164-0.363-0.198-0.674,0.089-1.047c0.593-0.771,0.444-1.775-0.284-2.472
		c-1.188-1.134-3.383-1.275-4.753-0.304c-1.376,0.976-1.345,2.588,0.083,3.498c1.008,0.643,2.103,0.729,3.25,0.452
		c0.156-0.038,0.348,0.013,0.509,0.064C-41.007-30.017-40.574-29.856-40.138-29.704z"/>
	<path fill-rule="evenodd" clip-rule="evenodd" fill="#C1C6DE" d="M4.834-14.827c-0.588,0.01-1.129-0.117-1.655-0.364
		c-0.168-0.08-0.396-0.111-0.577-0.074c-1.419,0.292-2.729,0.12-3.788-0.94c-0.904-0.906-0.823-2.187,0.134-3.042
		c1.345-1.201,3.748-1.223,5.111-0.047c0.945,0.815,1.067,1.923,0.345,2.934c-0.084,0.117-0.122,0.334-0.074,0.465
		C4.46-15.543,4.648-15.212,4.834-14.827z M4.484-14.914c0.019-0.038,0.038-0.076,0.057-0.113c-0.09-0.187-0.185-0.371-0.27-0.56
		c-0.161-0.355-0.17-0.655,0.103-1.011c0.598-0.782,0.442-1.796-0.308-2.497c-1.276-1.193-3.632-1.241-4.958-0.101
		c-1.053,0.905-1.048,2.253,0.04,3.117c1.035,0.822,2.217,0.948,3.479,0.666c0.179-0.041,0.394,0.012,0.578,0.067
		C3.636-15.217,4.059-15.059,4.484-14.914z"/>
	<path fill-rule="evenodd" clip-rule="evenodd" fill="#C1C6DE" d="M-24.92-0.032c-0.59,0.01-1.139-0.118-1.671-0.375
		c-0.157-0.076-0.374-0.103-0.544-0.066c-1.433,0.3-2.754,0.127-3.817-0.952c-0.869-0.881-0.807-2.111,0.083-2.966
		c1.352-1.3,3.956-1.297,5.305,0.006c0.815,0.787,0.903,1.88,0.251,2.781c-0.097,0.133-0.147,0.374-0.097,0.524
		C-25.297-0.736-25.106-0.417-24.92-0.032z M-25.262-0.117c0.017-0.038,0.033-0.076,0.05-0.114c-0.1-0.21-0.207-0.416-0.298-0.629
		c-0.139-0.323-0.131-0.597,0.112-0.912c0.606-0.788,0.476-1.792-0.265-2.504c-1.264-1.217-3.659-1.275-4.984-0.123
		c-1.063,0.924-1.043,2.272,0.075,3.141c1.044,0.81,2.23,0.924,3.489,0.627c0.156-0.037,0.347,0.013,0.509,0.064
		C-26.132-0.429-25.698-0.268-25.262-0.117z"/>
	<path fill-rule="evenodd" clip-rule="evenodd" fill="#C1C6DE" d="M-39.795-14.828c-0.583,0.011-1.13-0.084-1.623-0.366
		c-0.226-0.13-0.415-0.126-0.659-0.073c-1.415,0.302-2.728,0.109-3.771-0.973c-0.855-0.886-0.781-2.116,0.12-2.964
		c1.351-1.271,3.893-1.275,5.25-0.008c0.854,0.799,0.949,1.894,0.27,2.833c-0.09,0.125-0.136,0.354-0.085,0.495
		C-40.169-15.532-39.978-15.204-39.795-14.828z M-40.132-14.912c0.017-0.034,0.033-0.068,0.049-0.102
		c-0.094-0.197-0.195-0.391-0.282-0.591c-0.147-0.342-0.167-0.633,0.1-0.979c0.599-0.772,0.463-1.77-0.26-2.473
		c-1.268-1.234-3.671-1.294-5.01-0.125c-1.045,0.912-1.027,2.259,0.068,3.115c1.04,0.813,2.223,0.937,3.483,0.648
		c0.168-0.039,0.371,0.01,0.544,0.063C-40.999-15.221-40.567-15.062-40.132-14.912z"/>
	<path fill-rule="evenodd" clip-rule="evenodd" fill="#C1C6DE" d="M-2.589,7.367c-0.589,0.006-1.144-0.082-1.644-0.373
		c-0.213-0.125-0.392-0.131-0.624-0.078C-6.142,7.217-7.348,7.051-8.4,6.209c-1.131-0.904-1.131-2.396-0.019-3.322
		c1.386-1.156,3.687-1.142,5.059,0.027C-2.463,3.68-2.3,4.844-2.993,5.756c-0.167,0.221-0.208,0.41-0.096,0.639
		C-2.936,6.711-2.768,7.02-2.589,7.367z M-2.858,7.307c-0.178-0.439-0.323-0.738-0.415-1.055C-3.31,6.121-3.286,5.914-3.201,5.816
		c0.783-0.909,0.654-2.139-0.457-2.958C-4.918,1.93-6.94,1.945-8.193,2.883c-1.218,0.914-1.226,2.41-0.001,3.306
		c1.029,0.754,2.178,0.861,3.398,0.584c0.177-0.039,0.391,0.023,0.576,0.078C-3.789,6.982-3.365,7.137-2.858,7.307z"/>
	<path fill-rule="evenodd" clip-rule="evenodd" fill="#C1C6DE" d="M-17.453,7.367c-0.609-0.002-1.155-0.111-1.681-0.365
		C-19.3,6.92-19.53,6.889-19.711,6.928c-1.235,0.27-2.397,0.139-3.435-0.617c-1.298-0.941-1.311-2.514-0.047-3.506
		c1.385-1.087,3.689-1.02,4.999,0.146c0.846,0.753,1.009,1.882,0.355,2.759c-0.202,0.271-0.233,0.502-0.098,0.775
		C-17.797,6.768-17.634,7.041-17.453,7.367z M-17.738,7.316c-0.176-0.451-0.323-0.764-0.415-1.092
		c-0.035-0.127,0.011-0.318,0.092-0.432c0.738-1.01,0.604-2.077-0.375-2.864c-1.25-1.004-3.424-1.008-4.683-0.008
		c-1.167,0.928-1.158,2.378,0.042,3.263c1.037,0.766,2.201,0.875,3.432,0.582c0.157-0.037,0.349,0.01,0.51,0.061
		C-18.695,6.967-18.261,7.131-17.738,7.316z"/>
	<path fill-rule="evenodd" clip-rule="evenodd" fill="#C1C6DE" d="M-10.042-0.032c-0.583,0.01-1.13-0.084-1.623-0.367
		c-0.226-0.13-0.415-0.127-0.659-0.074c-1.402,0.303-2.703,0.111-3.746-0.944c-0.879-0.89-0.815-2.139,0.095-2.992
		c1.358-1.272,3.887-1.277,5.25-0.009c0.853,0.794,0.948,1.894,0.27,2.833c-0.09,0.125-0.135,0.354-0.085,0.495
		C-10.416-0.738-10.225-0.409-10.042-0.032z M-10.378-0.125c0.017-0.031,0.033-0.061,0.049-0.092
		c-0.085-0.172-0.175-0.343-0.253-0.518c-0.166-0.374-0.216-0.692,0.085-1.082c0.587-0.757,0.439-1.748-0.272-2.441
		c-1.266-1.236-3.669-1.3-5.009-0.135c-1.048,0.913-1.035,2.254,0.059,3.117c1.013,0.799,2.176,0.951,3.406,0.655
		c0.257-0.062,0.449-0.04,0.693,0.076C-11.227-0.359-10.793-0.26-10.378-0.125z"/>
	<path fill-rule="evenodd" clip-rule="evenodd" fill="#C1C6DE" d="M-39.799,14.764c-0.6,0.006-1.155-0.117-1.687-0.387
		c-0.145-0.072-0.351-0.096-0.51-0.061c-1.331,0.297-2.575,0.146-3.64-0.752c-1.096-0.926-1.071-2.34,0.016-3.271
		c1.333-1.145,3.683-1.152,5.026-0.018c0.968,0.818,1.099,1.932,0.365,2.959c-0.079,0.109-0.125,0.311-0.081,0.43
		C-40.174,14.027-39.986,14.371-39.799,14.764z M-40.131,14.676c0.016-0.033,0.032-0.068,0.047-0.104
		c-0.094-0.197-0.193-0.393-0.283-0.592c-0.155-0.346-0.157-0.637,0.105-0.979c0.594-0.775,0.457-1.771-0.267-2.473
		c-1.258-1.221-3.651-1.289-4.983-0.145c-1.068,0.918-1.06,2.27,0.051,3.143c1.039,0.814,2.224,0.934,3.484,0.643
		c0.167-0.039,0.37,0.014,0.543,0.066C-40.996,14.371-40.564,14.529-40.131,14.676z"/>
	<path fill-rule="evenodd" clip-rule="evenodd" fill="#C1C6DE" d="M4.838,14.764c-0.591,0.01-1.133-0.117-1.659-0.365
		c-0.168-0.078-0.396-0.109-0.577-0.072c-1.434,0.293-2.753,0.117-3.814-0.967c-0.858-0.879-0.791-2.123,0.105-2.967
		C0.26,9.107,2.813,9.107,4.17,10.395c0.833,0.789,0.923,1.887,0.258,2.809c-0.095,0.133-0.136,0.375-0.084,0.525
		C4.463,14.072,4.654,14.389,4.838,14.764z M4.489,14.68c0.017-0.041,0.035-0.082,0.052-0.123c-0.086-0.176-0.176-0.35-0.258-0.525
		c-0.169-0.365-0.187-0.676,0.096-1.045c0.588-0.773,0.438-1.771-0.292-2.471c-1.266-1.215-3.657-1.27-4.984-0.117
		c-1.05,0.912-1.041,2.254,0.051,3.117c1.048,0.828,2.244,0.947,3.517,0.648c0.156-0.037,0.347,0.012,0.508,0.064
		C3.62,14.367,4.053,14.527,4.489,14.68z"/>
	<path fill-rule="evenodd" clip-rule="evenodd" fill="#C1C6DE" d="M-24.918-14.827c-0.594,0.007-1.137-0.118-1.662-0.367
		c-0.167-0.08-0.396-0.105-0.579-0.068c-1.434,0.291-2.753,0.113-3.811-0.975c-0.847-0.872-0.785-2.089,0.09-2.94
		c1.339-1.304,3.951-1.31,5.305-0.011c0.831,0.797,0.916,1.879,0.245,2.809c-0.09,0.125-0.135,0.354-0.086,0.494
		C-25.292-15.533-25.102-15.205-24.918-14.827z M-25.268-14.911c0.019-0.04,0.038-0.079,0.058-0.118
		c-0.086-0.175-0.177-0.347-0.257-0.525c-0.165-0.363-0.197-0.674,0.089-1.046c0.593-0.773,0.445-1.774-0.284-2.471
		c-1.287-1.229-3.672-1.275-5.01-0.097c-1.027,0.904-1.01,2.241,0.068,3.09c1.048,0.828,2.243,0.953,3.516,0.653
		c0.157-0.037,0.348,0.009,0.51,0.06C-26.137-15.226-25.704-15.063-25.268-14.911z"/>
	<path fill-rule="evenodd" clip-rule="evenodd" fill="#C1C6DE" d="M-39.798-0.037c-0.56,0.024-1.099-0.078-1.59-0.347
		c-0.235-0.128-0.428-0.149-0.692-0.091c-1.415,0.307-2.726,0.109-3.771-0.972c-0.852-0.882-0.776-2.125,0.125-2.965
		c1.364-1.272,3.886-1.274,5.25-0.004c0.852,0.792,0.945,1.891,0.265,2.833c-0.09,0.125-0.132,0.354-0.082,0.495
		C-40.167-0.735-39.977-0.405-39.798-0.037z M-40.131-0.117c0.016-0.035,0.032-0.069,0.048-0.104
		c-0.095-0.198-0.197-0.392-0.283-0.592c-0.148-0.343-0.165-0.633,0.103-0.979c0.598-0.772,0.46-1.769-0.264-2.472
		c-1.27-1.233-3.677-1.291-5.01-0.122c-1.043,0.917-1.023,2.261,0.074,3.116c1.041,0.813,2.224,0.934,3.484,0.645
		c0.168-0.039,0.37,0.013,0.543,0.066C-40.997-0.425-40.565-0.266-40.131-0.117z"/>
</g>
<g>
	<path fill-rule="evenodd" clip-rule="evenodd" fill="#C1C6DE" d="M-50.374,51.555c0.012-0.002,0.025-0.002,0.037-0.004
		c0.85-0.191,1.68-0.207,2.477,0.221c0.133,0.07,0.311,0.059,0.501,0.092c-0.138-0.346-0.286-0.648-0.374-0.969
		c-0.039-0.139-0.005-0.348,0.08-0.465c0.758-1.042,0.595-2.172-0.458-2.929c-0.672-0.484-1.429-0.715-2.263-0.681
		c0-0.05,0-0.099,0-0.147c0.951-0.01,1.809,0.251,2.541,0.869c0.925,0.781,1.052,1.93,0.35,2.909
		c-0.09,0.125-0.135,0.354-0.086,0.492c0.125,0.352,0.317,0.68,0.5,1.055c-0.596,0.004-1.158-0.113-1.694-0.389
		c-0.134-0.07-0.318-0.082-0.474-0.066c-0.381,0.037-0.758,0.105-1.137,0.16C-50.374,51.654-50.374,51.604-50.374,51.555z"/>
	<path fill-rule="evenodd" clip-rule="evenodd" fill="#C1C6DE" d="M-50.374,36.76c0.012-0.002,0.025-0.002,0.037-0.005
		c0.85-0.19,1.68-0.205,2.477,0.222c0.133,0.071,0.311,0.06,0.501,0.092c-0.138-0.346-0.286-0.648-0.374-0.968
		c-0.039-0.14-0.005-0.349,0.08-0.466c0.758-1.042,0.593-2.176-0.457-2.93c-0.673-0.482-1.429-0.715-2.263-0.68
		c0-0.049,0-0.1,0-0.148c0.951-0.009,1.809,0.252,2.541,0.871c0.925,0.779,1.052,1.928,0.35,2.908
		c-0.09,0.125-0.135,0.353-0.086,0.492c0.125,0.352,0.317,0.68,0.5,1.055c-0.597,0.005-1.158-0.114-1.694-0.39
		c-0.135-0.068-0.319-0.08-0.474-0.065c-0.381,0.037-0.759,0.104-1.137,0.16C-50.374,36.857-50.374,36.81-50.374,36.76z"/>
	<path fill-rule="evenodd" clip-rule="evenodd" fill="#C1C6DE" d="M-50.374,21.965c0.012-0.002,0.025-0.002,0.037-0.004
		c0.85-0.193,1.68-0.205,2.477,0.221c0.133,0.071,0.311,0.059,0.502,0.092c-0.139-0.346-0.287-0.647-0.375-0.967
		c-0.04-0.141-0.006-0.35,0.08-0.467c0.758-1.045,0.597-2.166-0.458-2.928c-0.671-0.486-1.429-0.716-2.263-0.682
		c0-0.049,0-0.098,0-0.148c0.951-0.009,1.809,0.252,2.541,0.871c0.925,0.78,1.052,1.93,0.349,2.909
		c-0.089,0.125-0.134,0.353-0.085,0.491c0.126,0.352,0.317,0.681,0.5,1.053c-0.597,0.01-1.156-0.115-1.694-0.387
		c-0.135-0.068-0.318-0.082-0.473-0.066c-0.381,0.037-0.758,0.104-1.137,0.16C-50.374,22.063-50.374,22.014-50.374,21.965z"/>
	<path fill-rule="evenodd" clip-rule="evenodd" fill="#C1C6DE" d="M9.132,46.82c-0.926-0.028-1.764,0.228-2.459,0.845
		c-1.041,0.924-0.98,2.251,0.111,3.114c0.689,0.543,1.492,0.736,2.348,0.775c0,0.049,0,0.1,0,0.148
		c-0.918-0.053-1.777-0.264-2.506-0.871c-1.098-0.912-1.117-2.374-0.031-3.293c0.73-0.618,1.59-0.874,2.537-0.866
		C9.132,46.722,9.132,46.771,9.132,46.82z"/>
	<path fill-rule="evenodd" clip-rule="evenodd" fill="#C1C6DE" d="M9.132,17.23C8.19,17.202,7.343,17.467,6.646,18.1
		c-1.004,0.912-0.945,2.211,0.109,3.066c0.693,0.563,1.508,0.76,2.377,0.799c0,0.049,0,0.099,0,0.148
		c-0.918-0.053-1.779-0.262-2.506-0.87c-1.109-0.929-1.117-2.396-0.002-3.317c0.727-0.601,1.574-0.853,2.508-0.844
		C9.132,17.133,9.132,17.182,9.132,17.23z"/>
	<path fill-rule="evenodd" clip-rule="evenodd" fill="#C1C6DE" d="M9.132,32.025c-0.939-0.027-1.789,0.234-2.486,0.869
		c-1.004,0.913-0.945,2.211,0.109,3.066c0.691,0.562,1.508,0.761,2.377,0.799c0,0.05,0,0.098,0,0.148
		c-0.932-0.053-1.803-0.27-2.535-0.894c-1.068-0.909-1.074-2.368-0.002-3.271c0.73-0.616,1.59-0.875,2.537-0.866
		C9.132,31.926,9.132,31.977,9.132,32.025z"/>
	<path fill-rule="evenodd" clip-rule="evenodd" fill="#C1C6DE" d="M-24.757,59.395c-0.569,0.012-1.115-0.08-1.604-0.359
		c-0.239-0.137-0.436-0.133-0.694-0.078c-1.402,0.297-2.701,0.1-3.741-0.963c-0.871-0.887-0.797-2.145,0.121-2.99
		c1.353-1.246,3.828-1.262,5.195-0.033c0.897,0.807,1.003,1.906,0.299,2.885c-0.084,0.117-0.127,0.334-0.08,0.463
		C-25.133,58.672-24.945,59.004-24.757,59.395z M-25.101,59.311c0.019-0.037,0.037-0.076,0.055-0.113
		c-0.091-0.186-0.186-0.371-0.271-0.559c-0.16-0.355-0.175-0.656,0.1-1.014c0.593-0.775,0.448-1.779-0.279-2.473
		c-1.263-1.207-3.624-1.279-4.958-0.15c-1.09,0.92-1.084,2.287,0.044,3.164c1.043,0.811,2.229,0.926,3.488,0.629
		c0.158-0.037,0.348,0.012,0.51,0.063C-25.972,58.996-25.538,59.158-25.101,59.311z"/>
	<path fill-rule="evenodd" clip-rule="evenodd" fill="#C1C6DE" d="M-32.233,37.285c-0.507-0.137-1.036-0.225-1.514-0.428
		c-0.285-0.121-0.509-0.139-0.8-0.078c-1.248,0.258-2.42,0.086-3.438-0.73c-1.142-0.914-1.136-2.419,0-3.346
		c1.393-1.136,3.66-1.117,5.029,0.043c0.891,0.754,1.073,1.904,0.396,2.807c-0.207,0.277-0.216,0.508-0.086,0.775
		c0.138,0.285,0.303,0.555,0.456,0.831C-32.206,37.201-32.219,37.244-32.233,37.285z M-32.45,37.145
		c-0.172-0.43-0.319-0.74-0.414-1.066c-0.037-0.129-0.005-0.334,0.079-0.434c0.759-0.895,0.659-2.106-0.442-2.934
		c-1.259-0.947-3.311-0.936-4.563,0.016c-1.216,0.924-1.217,2.404,0.015,3.305c1.031,0.752,2.181,0.857,3.399,0.574
		c0.167-0.038,0.37,0.016,0.543,0.068C-33.392,36.811-32.958,36.971-32.45,37.145z"/>
	<path fill-rule="evenodd" clip-rule="evenodd" fill="#C1C6DE" d="M-17.326,37.204c-0.581,0.004-1.133-0.118-1.665-0.376
		c-0.155-0.076-0.371-0.104-0.541-0.068c-1.316,0.282-2.528,0.119-3.606-0.739c-1.058-0.843-1.101-2.306-0.087-3.222
		c1.373-1.24,3.809-1.246,5.195-0.012c0.882,0.786,0.992,1.973,0.283,2.889c-0.079,0.104-0.127,0.302-0.086,0.418
		C-17.698,36.457-17.514,36.802-17.326,37.204z M-17.559,37.146c-0.175-0.406-0.322-0.68-0.406-0.971
		c-0.045-0.154-0.037-0.383,0.051-0.504c0.76-1.039,0.627-2.131-0.383-2.924c-1.257-0.987-3.403-0.984-4.657,0.006
		c-1.189,0.939-1.154,2.434,0.091,3.307c1.031,0.725,2.168,0.822,3.371,0.543c0.166-0.039,0.368,0.022,0.542,0.075
		C-18.51,36.813-18.079,36.969-17.559,37.146z"/>
	<path fill-rule="evenodd" clip-rule="evenodd" fill="#C1C6DE" d="M-2.439,37.202c-0.589,0.005-1.14-0.113-1.671-0.374
		c-0.156-0.076-0.373-0.105-0.543-0.069c-1.291,0.282-2.496,0.14-3.557-0.69c-1.17-0.915-1.168-2.431-0.018-3.369
		c1.379-1.123,3.629-1.111,5,0.028c0.947,0.788,1.082,1.938,0.368,2.936c-0.089,0.125-0.129,0.354-0.078,0.493
		C-2.811,36.507-2.62,36.835-2.439,37.202z M-2.67,37.152c-0.17-0.374-0.316-0.611-0.379-0.866c-0.05-0.205-0.079-0.492,0.027-0.643
		c0.747-1.065,0.594-2.159-0.456-2.938c-1.264-0.938-3.313-0.928-4.564,0.024c-1.199,0.911-1.21,2.388-0.006,3.284
		c1.036,0.77,2.198,0.877,3.431,0.592c0.167-0.038,0.369,0.018,0.543,0.072C-3.635,36.813-3.202,36.971-2.67,37.152z"/>
	<path fill-rule="evenodd" clip-rule="evenodd" fill="#C1C6DE" d="M-32.167,22.408c-0.599,0.002-1.15-0.078-1.642-0.366
		c-0.225-0.132-0.417-0.134-0.659-0.079c-1.273,0.293-2.468,0.125-3.511-0.703c-1.149-0.912-1.146-2.411-0.012-3.346
		c1.389-1.146,3.702-1.121,5.058,0.055c0.867,0.751,1.041,1.896,0.378,2.784c-0.202,0.272-0.23,0.503-0.094,0.774
		C-32.508,21.811-32.347,22.083-32.167,22.408z M-32.451,22.348c-0.177-0.44-0.321-0.74-0.412-1.057
		c-0.037-0.131-0.011-0.337,0.074-0.436c0.818-0.955,0.618-2.227-0.552-3.021c-1.263-0.859-3.181-0.824-4.414,0.07
		c-1.243,0.9-1.264,2.42-0.027,3.328c1.028,0.754,2.178,0.86,3.398,0.582c0.177-0.04,0.391,0.024,0.575,0.08
		C-33.378,22.023-32.954,22.178-32.451,22.348z"/>
	<path fill-rule="evenodd" clip-rule="evenodd" fill="#C1C6DE" d="M-2.439,22.408c-0.579,0-1.132-0.078-1.622-0.369
		c-0.227-0.134-0.418-0.127-0.658-0.074c-1.289,0.291-2.492,0.12-3.539-0.734c-1.107-0.903-1.103-2.385-0.005-3.297
		c1.396-1.158,3.679-1.151,5.058,0.017c0.924,0.784,1.055,1.931,0.353,2.911c-0.09,0.125-0.136,0.352-0.087,0.492
		C-2.815,21.705-2.623,22.033-2.439,22.408z M-2.7,22.356c-0.177-0.452-0.324-0.765-0.415-1.093
		c-0.035-0.127,0.013-0.318,0.095-0.43c0.723-0.99,0.611-2.015-0.324-2.816c-1.256-1.078-3.574-1.068-4.824,0.02
		c-1.074,0.936-1.039,2.312,0.102,3.168c1.044,0.783,2.217,0.896,3.462,0.601c0.157-0.037,0.349,0.012,0.511,0.063
		C-3.653,22.01-3.22,22.172-2.7,22.356z"/>
	<path fill-rule="evenodd" clip-rule="evenodd" fill="#C1C6DE" d="M-9.879,59.395c-0.582,0.012-1.138-0.088-1.637-0.377
		c-0.217-0.123-0.394-0.119-0.625-0.07c-1.415,0.311-2.727,0.119-3.777-0.951c-0.863-0.877-0.801-2.111,0.091-2.965
		c1.356-1.299,3.964-1.291,5.304,0.014c0.814,0.791,0.899,1.875,0.246,2.779c-0.097,0.135-0.145,0.377-0.094,0.525
		C-10.256,58.695-10.065,59.014-9.879,59.395z M-10.221,59.307c0.016-0.039,0.031-0.08,0.047-0.121
		c-0.086-0.174-0.175-0.348-0.258-0.525c-0.171-0.365-0.184-0.676,0.098-1.045c0.588-0.775,0.438-1.777-0.293-2.471
		c-1.184-1.123-3.348-1.268-4.721-0.318c-1.404,0.973-1.384,2.602,0.058,3.52c0.995,0.633,2.078,0.721,3.214,0.459
		c0.178-0.041,0.393,0.02,0.576,0.074C-11.07,59.008-10.647,59.162-10.221,59.307z"/>
	<path fill-rule="evenodd" clip-rule="evenodd" fill="#C1C6DE" d="M5.021,44.599c-0.611,0.01-1.152-0.116-1.678-0.363
		c-0.168-0.08-0.396-0.111-0.578-0.074c-1.433,0.295-2.753,0.117-3.813-0.967c-0.862-0.882-0.794-2.113,0.104-2.965
		c1.353-1.286,3.917-1.286,5.277,0.002c0.834,0.789,0.943,1.9,0.242,2.795c-0.195,0.249-0.133,0.463-0.033,0.683
		C4.671,43.997,4.841,44.269,5.021,44.599z M4.644,44.515c0.021-0.035,0.043-0.07,0.064-0.105c-0.096-0.197-0.193-0.394-0.285-0.594
		c-0.154-0.345-0.152-0.637,0.109-0.979c0.6-0.786,0.451-1.794-0.297-2.499C2.978,39.15,0.628,39.086-0.696,40.2
		c-1.105,0.93-1.092,2.309,0.061,3.188c1.037,0.792,2.211,0.905,3.457,0.614c0.158-0.037,0.35,0.004,0.512,0.056
		C3.774,44.198,4.208,44.361,4.644,44.515z"/>
	<path fill-rule="evenodd" clip-rule="evenodd" fill="#C1C6DE" d="M-32.193,51.998c-0.585,0.004-1.134-0.113-1.665-0.373
		c-0.157-0.076-0.373-0.109-0.542-0.072c-1.29,0.283-2.496,0.143-3.558-0.686c-1.172-0.914-1.175-2.433-0.026-3.37
		c1.391-1.135,3.667-1.115,5.028,0.045c0.923,0.785,1.051,1.929,0.348,2.911c-0.089,0.125-0.133,0.354-0.083,0.492
		C-32.565,51.297-32.375,51.625-32.193,51.998z M-32.453,51.945c-0.175-0.449-0.322-0.762-0.413-1.09
		c-0.035-0.127,0.011-0.32,0.092-0.432c0.736-1.007,0.602-2.081-0.376-2.864c-1.251-1.004-3.426-1.006-4.685-0.006
		C-39,48.48-38.99,49.93-37.791,50.814c1.038,0.766,2.2,0.873,3.432,0.582c0.157-0.037,0.349,0.01,0.511,0.061
		C-33.407,51.598-32.974,51.762-32.453,51.945z"/>
	<path fill-rule="evenodd" clip-rule="evenodd" fill="#C1C6DE" d="M-17.316,22.408c-0.575,0.004-1.133-0.08-1.631-0.373
		c-0.215-0.127-0.395-0.129-0.624-0.076c-1.287,0.297-2.492,0.133-3.545-0.711c-1.129-0.904-1.128-2.4-0.015-3.322
		c1.383-1.145,3.649-1.142,5.028,0.008c0.946,0.789,1.081,1.937,0.367,2.937c-0.089,0.124-0.127,0.353-0.077,0.493
		C-17.686,21.715-17.496,22.042-17.316,22.408z M-17.577,22.356c-0.176-0.45-0.322-0.764-0.414-1.092
		c-0.035-0.128,0.012-0.319,0.094-0.431c0.724-0.988,0.613-2.016-0.322-2.816c-1.258-1.078-3.574-1.068-4.824,0.02
		c-1.075,0.936-1.042,2.312,0.1,3.168c1.044,0.783,2.217,0.896,3.463,0.601c0.156-0.037,0.348,0.012,0.51,0.063
		C-18.531,22.01-18.098,22.172-17.577,22.356z"/>
	<path fill-rule="evenodd" clip-rule="evenodd" fill="#C1C6DE" d="M-9.881,29.804c-0.583,0.011-1.13-0.085-1.623-0.367
		c-0.226-0.13-0.414-0.126-0.658-0.073c-1.401,0.303-2.701,0.11-3.746-0.945c-0.877-0.888-0.813-2.141,0.097-2.992
		c1.359-1.271,3.891-1.275,5.249-0.006c0.855,0.798,0.949,1.892,0.271,2.832c-0.091,0.125-0.134,0.354-0.085,0.495
		C-10.252,29.099-10.063,29.428-9.881,29.804z M-10.229,29.721c0.021-0.041,0.042-0.082,0.063-0.121
		c-0.074-0.14-0.154-0.277-0.22-0.42c-0.185-0.402-0.265-0.752,0.066-1.182c0.582-0.755,0.415-1.752-0.304-2.438
		c-1.262-1.207-3.615-1.277-4.955-0.148c-1.09,0.918-1.084,2.287,0.044,3.164c1.043,0.81,2.228,0.926,3.487,0.63
		c0.156-0.036,0.348,0.009,0.51,0.06C-11.098,29.404-10.665,29.568-10.229,29.721z"/>
	<path fill-rule="evenodd" clip-rule="evenodd" fill="#C1C6DE" d="M4.997,29.805c-0.588,0.01-1.129-0.117-1.656-0.364
		c-0.168-0.079-0.395-0.11-0.576-0.073c-1.419,0.291-2.73,0.119-3.789-0.941c-0.904-0.905-0.822-2.187,0.135-3.041
		c1.345-1.201,3.748-1.223,5.111-0.047c0.945,0.814,1.066,1.923,0.346,2.934c-0.084,0.117-0.123,0.334-0.074,0.465
		C4.622,29.088,4.81,29.419,4.997,29.805z M4.647,29.717c0.018-0.038,0.037-0.076,0.057-0.113c-0.09-0.187-0.186-0.37-0.27-0.56
		c-0.16-0.354-0.17-0.655,0.102-1.011c0.598-0.783,0.443-1.797-0.307-2.498c-1.277-1.193-3.632-1.24-4.958-0.101
		c-1.053,0.905-1.047,2.253,0.041,3.117c1.034,0.821,2.217,0.948,3.478,0.666c0.18-0.041,0.393,0.013,0.578,0.067
		C3.798,29.414,4.222,29.572,4.647,29.717z"/>
	<path fill-rule="evenodd" clip-rule="evenodd" fill="#C1C6DE" d="M-24.758,44.599c-0.59,0.01-1.139-0.117-1.671-0.375
		c-0.157-0.076-0.374-0.102-0.544-0.066c-1.433,0.301-2.754,0.127-3.817-0.951c-0.869-0.882-0.807-2.111,0.083-2.967
		c1.352-1.3,3.956-1.298,5.305,0.006c0.815,0.787,0.903,1.881,0.251,2.781c-0.097,0.133-0.147,0.374-0.097,0.524
		C-25.135,43.896-24.944,44.214-24.758,44.599z M-25.099,44.515c0.017-0.038,0.033-0.076,0.05-0.114
		c-0.1-0.21-0.207-0.416-0.298-0.63c-0.139-0.322-0.131-0.596,0.112-0.912c0.606-0.787,0.476-1.791-0.265-2.504
		c-1.264-1.216-3.659-1.274-4.984-0.122c-1.063,0.925-1.043,2.272,0.075,3.141c1.044,0.81,2.23,0.924,3.489,0.627
		c0.156-0.037,0.347,0.013,0.509,0.063C-25.969,44.202-25.536,44.363-25.099,44.515z"/>
	<path fill-rule="evenodd" clip-rule="evenodd" fill="#C1C6DE" d="M-39.632,29.803c-0.583,0.012-1.13-0.084-1.623-0.365
		c-0.226-0.131-0.415-0.127-0.659-0.074c-1.415,0.303-2.728,0.109-3.771-0.973c-0.855-0.886-0.781-2.116,0.12-2.965
		c1.351-1.271,3.893-1.274,5.25-0.008c0.854,0.799,0.949,1.894,0.27,2.834c-0.09,0.125-0.136,0.354-0.085,0.494
		C-40.006,29.099-39.815,29.428-39.632,29.803z M-39.97,29.719c0.017-0.034,0.033-0.068,0.049-0.102
		c-0.094-0.197-0.195-0.391-0.282-0.592c-0.147-0.342-0.167-0.633,0.1-0.979c0.599-0.773,0.463-1.771-0.26-2.473
		c-1.268-1.234-3.671-1.295-5.01-0.125c-1.045,0.911-1.027,2.259,0.068,3.115c1.04,0.813,2.223,0.936,3.483,0.648
		c0.168-0.039,0.371,0.01,0.544,0.063C-40.836,29.41-40.405,29.568-39.97,29.719z"/>
	<path fill-rule="evenodd" clip-rule="evenodd" fill="#C1C6DE" d="M-2.426,51.998c-0.589,0.006-1.144-0.082-1.644-0.373
		c-0.213-0.125-0.392-0.131-0.624-0.078c-1.285,0.301-2.491,0.135-3.543-0.707c-1.131-0.904-1.131-2.396-0.02-3.322
		c1.387-1.155,3.688-1.142,5.059,0.026c0.897,0.768,1.061,1.932,0.367,2.843c-0.166,0.221-0.207,0.41-0.096,0.639
		C-2.773,51.342-2.606,51.65-2.426,51.998z M-2.696,51.938c-0.178-0.439-0.322-0.738-0.414-1.055
		c-0.037-0.131-0.014-0.338,0.071-0.436c0.783-0.909,0.653-2.14-0.457-2.958c-1.26-0.929-3.282-0.914-4.534,0.025
		c-1.219,0.913-1.227,2.409-0.002,3.306c1.029,0.754,2.179,0.861,3.398,0.584c0.178-0.039,0.391,0.023,0.576,0.078
		C-3.625,51.613-3.202,51.768-2.696,51.938z"/>
	<path fill-rule="evenodd" clip-rule="evenodd" fill="#C1C6DE" d="M-17.29,51.998c-0.609-0.002-1.156-0.111-1.682-0.365
		c-0.166-0.082-0.396-0.113-0.577-0.074c-1.235,0.27-2.397,0.139-3.435-0.617c-1.298-0.941-1.311-2.514-0.047-3.506
		c1.385-1.087,3.689-1.02,4.999,0.146c0.846,0.753,1.01,1.882,0.355,2.759c-0.202,0.271-0.233,0.502-0.098,0.775
		C-17.634,51.398-17.471,51.672-17.29,51.998z M-17.576,51.947c-0.177-0.451-0.323-0.764-0.415-1.092
		c-0.035-0.127,0.012-0.318,0.092-0.432c0.738-1.01,0.604-2.077-0.375-2.864c-1.251-1.004-3.424-1.008-4.684-0.008
		c-1.167,0.928-1.158,2.378,0.042,3.263c1.037,0.766,2.201,0.875,3.432,0.582c0.157-0.037,0.349,0.01,0.51,0.061
		C-18.532,51.598-18.098,51.762-17.576,51.947z"/>
	<path fill-rule="evenodd" clip-rule="evenodd" fill="#C1C6DE" d="M-9.879,44.599c-0.583,0.01-1.131-0.084-1.623-0.367
		c-0.226-0.129-0.414-0.127-0.658-0.073c-1.402,0.304-2.703,0.11-3.746-0.944c-0.88-0.89-0.816-2.139,0.094-2.992
		c1.359-1.272,3.888-1.276,5.251-0.009c0.853,0.794,0.948,1.894,0.27,2.833c-0.091,0.125-0.135,0.354-0.085,0.494
		C-10.253,43.894-10.063,44.222-9.879,44.599z M-10.215,44.506c0.018-0.03,0.033-0.062,0.049-0.093
		c-0.084-0.172-0.175-0.342-0.252-0.518c-0.166-0.373-0.217-0.691,0.085-1.081c0.587-0.757,0.438-1.747-0.272-2.441
		c-1.266-1.236-3.668-1.301-5.008-0.135c-1.049,0.913-1.035,2.255,0.059,3.116c1.013,0.799,2.176,0.951,3.406,0.655
		c0.258-0.062,0.449-0.04,0.693,0.075C-11.064,44.271-10.631,44.37-10.215,44.506z"/>
	<path fill-rule="evenodd" clip-rule="evenodd" fill="#C1C6DE" d="M-39.636,59.395c-0.6,0.006-1.155-0.117-1.687-0.387
		c-0.145-0.072-0.351-0.096-0.51-0.061c-1.331,0.297-2.575,0.146-3.64-0.752c-1.096-0.926-1.071-2.34,0.016-3.271
		c1.333-1.145,3.683-1.152,5.026-0.018c0.968,0.818,1.099,1.932,0.365,2.959c-0.079,0.109-0.125,0.311-0.081,0.43
		C-40.012,58.658-39.824,59.002-39.636,59.395z M-39.968,59.307c0.016-0.033,0.032-0.068,0.047-0.104
		c-0.094-0.197-0.193-0.393-0.283-0.592c-0.155-0.346-0.157-0.637,0.105-0.979c0.594-0.775,0.457-1.771-0.267-2.473
		c-1.258-1.221-3.651-1.289-4.983-0.145c-1.068,0.918-1.06,2.27,0.051,3.143c1.039,0.814,2.224,0.934,3.484,0.643
		c0.167-0.039,0.37,0.014,0.543,0.066C-40.833,59.002-40.402,59.16-39.968,59.307z"/>
	<path fill-rule="evenodd" clip-rule="evenodd" fill="#C1C6DE" d="M5.001,59.395c-0.592,0.01-1.133-0.117-1.66-0.365
		c-0.168-0.078-0.395-0.109-0.576-0.072c-1.434,0.293-2.753,0.117-3.814-0.967c-0.859-0.879-0.791-2.123,0.105-2.967
		c1.366-1.285,3.919-1.285,5.277,0.002c0.834,0.789,0.924,1.887,0.258,2.809c-0.096,0.133-0.135,0.375-0.084,0.525
		C4.626,58.703,4.815,59.02,5.001,59.395z M4.651,59.311c0.018-0.041,0.035-0.082,0.053-0.123c-0.088-0.176-0.178-0.35-0.258-0.525
		c-0.17-0.365-0.188-0.676,0.096-1.045c0.588-0.773,0.438-1.771-0.293-2.471c-1.266-1.215-3.657-1.27-4.984-0.117
		c-1.049,0.912-1.041,2.254,0.051,3.117c1.049,0.828,2.244,0.947,3.517,0.648c0.156-0.037,0.348,0.012,0.508,0.064
		C3.782,58.998,4.216,59.158,4.651,59.311z"/>
	<path fill-rule="evenodd" clip-rule="evenodd" fill="#C1C6DE" d="M-24.756,29.804c-0.594,0.007-1.137-0.118-1.662-0.367
		c-0.167-0.079-0.396-0.104-0.579-0.067c-1.434,0.29-2.753,0.112-3.811-0.976c-0.847-0.872-0.785-2.089,0.09-2.94
		c1.339-1.305,3.951-1.311,5.305-0.011c0.831,0.798,0.916,1.88,0.245,2.81c-0.09,0.124-0.135,0.354-0.086,0.493
		C-25.13,29.098-24.939,29.426-24.756,29.804z M-25.105,29.721c0.019-0.04,0.038-0.079,0.058-0.119
		c-0.086-0.174-0.177-0.347-0.257-0.524c-0.165-0.363-0.197-0.674,0.089-1.046c0.593-0.773,0.445-1.775-0.284-2.471
		c-1.287-1.229-3.672-1.275-5.01-0.098c-1.027,0.904-1.01,2.241,0.068,3.09c1.048,0.828,2.243,0.953,3.516,0.654
		c0.157-0.037,0.348,0.009,0.51,0.059C-25.974,29.404-25.541,29.568-25.105,29.721z"/>
	<path fill-rule="evenodd" clip-rule="evenodd" fill="#C1C6DE" d="M-39.635,44.595c-0.56,0.023-1.099-0.078-1.59-0.348
		c-0.235-0.127-0.428-0.148-0.692-0.09c-1.415,0.307-2.726,0.108-3.771-0.973c-0.852-0.883-0.776-2.125,0.125-2.965
		c1.364-1.272,3.886-1.274,5.25-0.004c0.852,0.793,0.945,1.891,0.265,2.834c-0.09,0.125-0.132,0.354-0.082,0.494
		C-40.004,43.896-39.814,44.226-39.635,44.595z M-39.968,44.514c0.016-0.034,0.032-0.069,0.048-0.104
		c-0.095-0.198-0.197-0.392-0.283-0.593c-0.148-0.342-0.165-0.633,0.103-0.979c0.598-0.773,0.46-1.77-0.264-2.473
		c-1.27-1.232-3.677-1.29-5.01-0.121c-1.043,0.916-1.023,2.262,0.074,3.116c1.041,0.813,2.224,0.935,3.484,0.646
		c0.168-0.039,0.37,0.013,0.543,0.066C-40.834,44.206-40.403,44.364-39.968,44.514z"/>
</g>
</svg>
