<?xml version="1.0" encoding="utf-8"?>
<!-- Generator: Adobe Illustrator 16.0.0, SVG Export Plug-In . SVG Version: 6.00 Build 0)  -->
<!DOCTYPE svg PUBLIC "-//W3C//DTD SVG 1.1//EN" "http://www.w3.org/Graphics/SVG/1.1/DTD/svg11.dtd">
<svg version="1.1" id="Layer_1" xmlns="http://www.w3.org/2000/svg" xmlns:xlink="http://www.w3.org/1999/xlink" x="0px" y="0px"
	 width="9.295px" height="9.295px" viewBox="0 0 9.295 9.295" enable-background="new 0 0 9.295 9.295" xml:space="preserve">
<g>
	<g>
		<path fill="#C1C6DE" d="M3.971,4.646c-1.18,0-2.141-0.959-2.141-2.14c0-1.179,0.961-2.138,2.141-2.138
			c1.181,0,2.138,0.959,2.138,2.138C6.108,3.688,5.151,4.646,3.971,4.646 M3.971,1.346c-0.641,0-1.162,0.521-1.162,1.161
			c0,0.642,0.521,1.162,1.162,1.162c0.642,0,1.162-0.521,1.162-1.162C5.133,1.868,4.612,1.346,3.971,1.346"/>
		<path fill="#C1C6DE" d="M6.976,7.654c-0.271,0-0.488-0.219-0.488-0.489c0-1.388-1.127-2.519-2.519-2.519
			c-1.387,0-2.516,1.131-2.516,2.519c0,0.271-0.219,0.489-0.49,0.489c-0.27,0-0.488-0.219-0.488-0.489
			c0-1.927,1.567-3.495,3.495-3.495s3.494,1.568,3.494,3.495C7.463,7.436,7.246,7.654,6.976,7.654"/>
	</g>
	<circle fill="#FFFFFF" cx="4.949" cy="3.406" r="1.764"/>
	<g>
		<path fill="#C1C6DE" d="M5.326,5.919c-1.18,0-2.141-0.96-2.141-2.14s0.961-2.139,2.141-2.139S7.465,2.6,7.465,3.779
			C7.463,4.96,6.506,5.919,5.326,5.919 M5.326,2.619c-0.641,0-1.162,0.521-1.162,1.16c0,0.642,0.521,1.162,1.162,1.162
			s1.161-0.521,1.161-1.162C6.487,3.141,5.965,2.619,5.326,2.619"/>
		<path fill="#C1C6DE" d="M8.332,8.926c-0.271,0-0.488-0.219-0.488-0.488c0-1.389-1.129-2.519-2.52-2.519
			c-1.387,0-2.516,1.13-2.516,2.519c0,0.271-0.219,0.488-0.491,0.488c-0.271,0-0.487-0.219-0.487-0.488
			c0-1.928,1.568-3.496,3.494-3.496c1.93,0,3.495,1.568,3.495,3.496C8.819,8.708,8.601,8.926,8.332,8.926"/>
	</g>
</g>
</svg>
