<?xml version="1.0" encoding="utf-8"?>
<!-- Generator: Adobe Illustrator 16.0.0, SVG Export Plug-In . SVG Version: 6.00 Build 0)  -->
<!DOCTYPE svg PUBLIC "-//W3C//DTD SVG 1.1//EN" "http://www.w3.org/Graphics/SVG/1.1/DTD/svg11.dtd">
<svg version="1.1" id="Layer_1" xmlns="http://www.w3.org/2000/svg" xmlns:xlink="http://www.w3.org/1999/xlink" x="0px" y="0px"
	 width="14.457px" height="28.674px" viewBox="0 1.648 14.457 28.674" enable-background="new 0 1.648 14.457 28.674"
	 xml:space="preserve">
<path fill="#A8DD1F" d="M14.457,15.979c0,7.922-6.473,14.343-14.457,14.343V1.648h0.592C8.302,1.956,14.457,8.254,14.457,15.979"/>
<path fill="#FFFFFF" d="M8.863,16.761H4.916c-0.164,0-0.297-0.133-0.297-0.297s0.133-0.296,0.297-0.296h3.947
	c0.165,0,0.299,0.132,0.299,0.296S9.028,16.761,8.863,16.761"/>
<path fill="#FFFFFF" d="M6.405,18.606c-0.077,0-0.153-0.028-0.212-0.086l-2.07-2.057l2.07-2.058c0.117-0.112,0.309-0.112,0.422,0
	c0.116,0.116,0.116,0.303,0.002,0.419l-1.652,1.639l1.652,1.637c0.114,0.117,0.114,0.306,0,0.42
	C6.559,18.577,6.48,18.606,6.405,18.606"/>
</svg>
