<?xml version="1.0" encoding="utf-8"?>
<!-- Generator: Adobe Illustrator 16.0.0, SVG Export Plug-In . SVG Version: 6.00 Build 0)  -->
<!DOCTYPE svg PUBLIC "-//W3C//DTD SVG 1.1//EN" "http://www.w3.org/Graphics/SVG/1.1/DTD/svg11.dtd">
<svg version="1.1" id="Layer_1" xmlns="http://www.w3.org/2000/svg" xmlns:xlink="http://www.w3.org/1999/xlink" x="0px" y="0px"
	 width="9.295px" height="9.295px" viewBox="0 0 9.295 9.295" enable-background="new 0 0 9.295 9.295" xml:space="preserve">
<path fill="#8F92A1" d="M0.968,8.222c-0.064,0-0.124-0.014-0.183-0.045C0.668,8.112,0.6,7.984,0.6,7.855V2.674
	c0-0.792,0.642-1.425,1.43-1.425h5.238c0.784,0,1.428,0.632,1.428,1.425v2.935c0,0.793-0.644,1.432-1.428,1.432H3.048L1.156,8.177
	C1.097,8.208,1.033,8.222,0.968,8.222 M2.029,1.978c-0.376,0-0.69,0.321-0.69,0.696v4.529l1.416-0.848
	c0.055-0.03,0.124-0.042,0.188-0.042h4.325c0.381,0,0.688-0.32,0.688-0.705V2.674c0-0.375-0.316-0.696-0.688-0.696H2.029z"/>
<path fill="#8F92A1" d="M6.365,3.668H3.014c-0.204,0-0.371-0.158-0.371-0.362c0-0.206,0.167-0.364,0.371-0.364h3.351
	c0.206,0,0.371,0.158,0.371,0.364C6.736,3.51,6.571,3.668,6.365,3.668"/>
<path fill="#8F92A1" d="M4.899,5.361H3.012c-0.202,0-0.366-0.16-0.366-0.365c0-0.204,0.165-0.362,0.366-0.362h1.888
	c0.204,0,0.371,0.158,0.371,0.362C5.271,5.201,5.104,5.361,4.899,5.361"/>
</svg>
