<?xml version="1.0" encoding="utf-8"?>
<!-- Generator: Adobe Illustrator 16.0.0, SVG Export Plug-In . SVG Version: 6.00 Build 0)  -->
<!DOCTYPE svg PUBLIC "-//W3C//DTD SVG 1.1//EN" "http://www.w3.org/Graphics/SVG/1.1/DTD/svg11.dtd">
<svg version="1.1" id="Layer_1" xmlns="http://www.w3.org/2000/svg" xmlns:xlink="http://www.w3.org/1999/xlink" x="0px" y="0px"
	 width="9.295px" height="9.295px" viewBox="0 0 9.295 9.295" enable-background="new 0 0 9.295 9.295" xml:space="preserve">
<path fill="#751A13" d="M4.647,0.384c-2.337,0-4.231,1.893-4.231,4.231c0,2.337,1.894,4.231,4.231,4.231
	c2.336,0,4.231-1.894,4.231-4.231C8.878,2.277,6.983,0.384,4.647,0.384 M5.638,5.606L2.59,6.672l1.066-3.047l3.049-1.068
	L5.638,5.606z M4.213,4.616c0-0.239,0.194-0.434,0.434-0.434c0.24,0,0.434,0.194,0.434,0.434c0,0.24-0.195,0.433-0.434,0.433
	C4.408,5.049,4.213,4.855,4.213,4.616"/>
</svg>
