<?xml version="1.0" encoding="utf-8"?>
<!-- Generator: Adobe Illustrator 16.0.0, SVG Export Plug-In . SVG Version: 6.00 Build 0)  -->
<!DOCTYPE svg PUBLIC "-//W3C//DTD SVG 1.1//EN" "http://www.w3.org/Graphics/SVG/1.1/DTD/svg11.dtd">
<svg version="1.1" id="Layer_1" xmlns="http://www.w3.org/2000/svg" xmlns:xlink="http://www.w3.org/1999/xlink" x="0px" y="0px"
	 width="9.295px" height="9.295px" viewBox="4.171 4.79 9.295 9.295" enable-background="new 4.171 4.79 9.295 9.295"
	 xml:space="preserve">
<g>
	<path fill-rule="evenodd" clip-rule="evenodd" fill="#C1C6DE" d="M7.814,11.691c-0.188-0.529-0.555-0.905-1.084-1.089
		c1.159-1.157,2.321-2.318,3.477-3.471c0.35,0.351,0.725,0.727,1.084,1.086C10.141,9.367,8.979,10.527,7.814,11.691z"/>
	<path fill-rule="evenodd" clip-rule="evenodd" fill="#C1C6DE" d="M11.696,7.873c-0.39-0.389-0.763-0.763-1.146-1.145
		c0.229-0.231,0.467-0.485,0.722-0.724c0.146-0.136,0.319-0.119,0.468,0.026c0.217,0.209,0.43,0.422,0.639,0.638
		c0.154,0.158,0.168,0.33,0.023,0.486C12.171,7.405,11.924,7.643,11.696,7.873z"/>
	<path fill-rule="evenodd" clip-rule="evenodd" fill="#C1C6DE" d="M6.467,10.907c0.557,0.141,0.902,0.465,1.041,1.035
		c-0.511,0.175-1.021,0.35-1.578,0.542C6.115,11.939,6.287,11.434,6.467,10.907z"/>
</g>
</svg>
