<?xml version="1.0" encoding="utf-8"?>
<!-- Generator: Adobe Illustrator 16.0.0, SVG Export Plug-In . SVG Version: 6.00 Build 0)  -->
<!DOCTYPE svg PUBLIC "-//W3C//DTD SVG 1.1//EN" "http://www.w3.org/Graphics/SVG/1.1/DTD/svg11.dtd">
<svg version="1.1" id="Layer_1" xmlns="http://www.w3.org/2000/svg" xmlns:xlink="http://www.w3.org/1999/xlink" x="0px" y="0px"
	 width="9.295px" height="9.295px" viewBox="0 0 9.295 9.295" enable-background="new 0 0 9.295 9.295" xml:space="preserve">
<path fill="#FFFFFF" d="M8.886,4.647c0,2.342-1.896,4.239-4.238,4.239c-2.342,0-4.239-1.896-4.239-4.239
	c0-2.34,1.896-4.238,4.238-4.238C6.989,0.409,8.886,2.307,8.886,4.647"/>
<path fill="#751A13" d="M4.677,1.871c1.01,0,1.748,0.505,1.748,1.55c0,0.846-0.625,1.386-1.527,1.408L4.854,5.333H3.459L3.417,3.826
	h0.598c0.549,0,0.883-0.105,0.868-0.411C4.876,3.243,4.769,3.15,4.633,3.15c-0.204,0-0.276,0.149-0.276,0.321H2.87
	C2.835,2.625,3.403,1.871,4.677,1.871"/>
<path fill="#751A13" d="M4.178,7.423c-0.561,0-0.909-0.342-0.909-0.775c0-0.44,0.349-0.789,0.909-0.789
	c0.556,0,0.903,0.349,0.903,0.789C5.081,7.081,4.733,7.423,4.178,7.423"/>
</svg>
