<?xml version="1.0" encoding="utf-8"?>
<!-- Generator: Adobe Illustrator 16.0.0, SVG Export Plug-In . SVG Version: 6.00 Build 0)  -->
<!DOCTYPE svg PUBLIC "-//W3C//DTD SVG 1.1//EN" "http://www.w3.org/Graphics/SVG/1.1/DTD/svg11.dtd">
<svg version="1.1" id="Layer_1" xmlns="http://www.w3.org/2000/svg" xmlns:xlink="http://www.w3.org/1999/xlink" x="0px" y="0px"
	 width="9.295px" height="9.295px" viewBox="0 0 9.295 9.295" enable-background="new 0 0 9.295 9.295" xml:space="preserve">
<path fill="#C1C6DE" d="M6.401,8.167H2.894c-0.621,0-1.125-0.504-1.125-1.125v-1.85c0-0.271,0.219-0.489,0.488-0.489
	s0.49,0.218,0.49,0.489v1.85c0,0.082,0.064,0.148,0.146,0.148h3.508c0.082,0,0.148-0.066,0.148-0.148v-1.85
	c0-0.271,0.219-0.489,0.488-0.489s0.488,0.218,0.488,0.489v1.85C7.526,7.663,7.022,8.167,6.401,8.167"/>
<path fill="#C1C6DE" d="M1.005,5.448c-0.125,0-0.25-0.049-0.346-0.145c-0.191-0.19-0.191-0.5,0-0.69l3.127-3.129
	C4.261,1.011,5.032,1.01,5.507,1.484l3.129,3.13c0.191,0.19,0.191,0.5,0,0.69c-0.191,0.191-0.5,0.191-0.691,0L4.817,2.175
	C4.724,2.083,4.571,2.082,4.479,2.174L1.349,5.304C1.255,5.399,1.13,5.448,1.005,5.448"/>
</svg>
