<?xml version="1.0" encoding="utf-8"?>
<!-- Generator: Adobe Illustrator 16.0.0, SVG Export Plug-In . SVG Version: 6.00 Build 0)  -->
<!DOCTYPE svg PUBLIC "-//W3C//DTD SVG 1.1//EN" "http://www.w3.org/Graphics/SVG/1.1/DTD/svg11.dtd">
<svg version="1.1" id="Layer_1" xmlns="http://www.w3.org/2000/svg" xmlns:xlink="http://www.w3.org/1999/xlink" x="0px" y="0px"
	 width="9.295px" height="9.295px" viewBox="0 0 9.295 9.295" enable-background="new 0 0 9.295 9.295" xml:space="preserve">
<path fill="#8F92A1" d="M4.623,8.501L4.623,8.501c-0.101,0-0.201-0.037-0.273-0.116L1.11,5.14C0.675,4.714,0.433,4.133,0.433,3.518
	c0-0.616,0.242-1.197,0.678-1.623c0.874-0.896,2.382-0.896,3.263,0l0.25,0.244l0.259-0.256c0.431-0.438,1.008-0.67,1.623-0.67h0.007
	c0.615,0,1.195,0.232,1.633,0.683c0.894,0.895,0.894,2.351,0,3.246L4.898,8.385C4.823,8.464,4.724,8.501,4.623,8.501 M2.738,1.973
	c-0.401,0-0.787,0.165-1.079,0.458C1.362,2.722,1.206,3.115,1.206,3.518c0,0.402,0.156,0.795,0.453,1.084l2.964,2.966l2.974-2.966
	c0.598-0.606,0.598-1.566,0-2.171C7.305,2.138,6.919,1.973,6.512,1.973H6.505c-0.407,0-0.79,0.165-1.077,0.458L4.894,2.958
	c-0.146,0.136-0.394,0.136-0.537,0L3.828,2.442C3.533,2.138,3.148,1.973,2.738,1.973"/>
</svg>
