<?xml version="1.0" encoding="utf-8"?>
<!-- Generator: Adobe Illustrator 16.0.0, SVG Export Plug-In . SVG Version: 6.00 Build 0)  -->
<!DOCTYPE svg PUBLIC "-//W3C//DTD SVG 1.1//EN" "http://www.w3.org/Graphics/SVG/1.1/DTD/svg11.dtd">
<svg version="1.1" id="Layer_1" xmlns="http://www.w3.org/2000/svg" xmlns:xlink="http://www.w3.org/1999/xlink" x="0px" y="0px"
	 width="9.295px" height="9.295px" viewBox="0 0 9.295 9.295" enable-background="new 0 0 9.295 9.295" xml:space="preserve">
<path fill="#1948F9" d="M7.417,6.788V4.137c0-1.173-0.73-2.167-1.76-2.573C5.67,1.5,5.679,1.434,5.679,1.368
	c0-0.571-0.463-1.034-1.033-1.034c-0.571,0-1.032,0.463-1.032,1.034c0,0.066,0.007,0.132,0.019,0.196
	c-1.027,0.406-1.758,1.4-1.758,2.573v2.651l-0.713,0.76h6.971L7.417,6.788z M4.646,1.852c-0.269,0-0.486-0.217-0.486-0.484
	c0-0.271,0.217-0.487,0.486-0.487c0.268,0,0.486,0.217,0.486,0.487C5.132,1.635,4.914,1.852,4.646,1.852 M3.48,7.919h2.333
	C5.741,8.505,5.252,8.962,4.646,8.962C4.041,8.962,3.549,8.505,3.48,7.919"/>
</svg>
