<?xml version="1.0" encoding="utf-8"?>
<!-- Generator: Adobe Illustrator 16.0.0, SVG Export Plug-In . SVG Version: 6.00 Build 0)  -->
<!DOCTYPE svg PUBLIC "-//W3C//DTD SVG 1.1//EN" "http://www.w3.org/Graphics/SVG/1.1/DTD/svg11.dtd">
<svg version="1.1" id="Layer_1" xmlns="http://www.w3.org/2000/svg" xmlns:xlink="http://www.w3.org/1999/xlink" x="0px" y="0px"
	 width="9.295px" height="9.295px" viewBox="0 0 9.295 9.295" enable-background="new 0 0 9.295 9.295" xml:space="preserve">
<path fill="#8F92A1" d="M8.58,3.693L5.188,1.211C5.122,1.165,5.03,1.209,5.03,1.291v1.216c-0.335,0.075-0.668,0.16-0.99,0.282
	c-0.748,0.267-1.473,0.66-2.065,1.21C1.371,4.541,0.963,5.275,0.803,5.996C0.691,6.353,0.694,6.722,0.674,7.071
	c-0.005,0.35,0.061,0.699,0.09,1.031c0.092-0.332,0.148-0.665,0.27-0.968c0.133-0.302,0.245-0.603,0.441-0.85
	c0.345-0.515,0.806-0.883,1.33-1.078c0.517-0.203,1.08-0.276,1.645-0.261C4.642,4.948,4.836,4.97,5.03,4.994v1.262
	c0,0.083,0.092,0.129,0.157,0.083L8.58,3.856C8.636,3.815,8.636,3.735,8.58,3.693"/>
</svg>
