<?xml version="1.0" encoding="utf-8"?>
<!-- Generator: Adobe Illustrator 16.0.0, SVG Export Plug-In . SVG Version: 6.00 Build 0)  -->
<!DOCTYPE svg PUBLIC "-//W3C//DTD SVG 1.1//EN" "http://www.w3.org/Graphics/SVG/1.1/DTD/svg11.dtd">
<svg version="1.1" id="Layer_1" xmlns="http://www.w3.org/2000/svg" xmlns:xlink="http://www.w3.org/1999/xlink" x="0px" y="0px"
	 width="9.295px" height="9.295px" viewBox="0 0 9.295 9.295" enable-background="new 0 0 9.295 9.295" xml:space="preserve">
<path fill="#C1C6DE" d="M7.099,4.597c0.912,0,1.383,0.903,1.662,1.886l0.221,0.787C9.026,7.42,8.877,7.538,8.747,7.538H6.995
	C7.04,7.42,7.067,7.285,7.024,7.151l-0.25-0.866C6.64,5.799,6.466,5.333,6.229,4.933C6.466,4.731,6.745,4.597,7.099,4.597"/>
<path fill="#C1C6DE" d="M4.654,4.279c1.017,0,1.546,1.003,1.854,2.106l0.236,0.867c0.043,0.149-0.119,0.285-0.252,0.285H2.815
	c-0.147,0-0.31-0.136-0.265-0.285L2.8,6.385C3.11,5.282,3.625,4.279,4.654,4.279"/>
<path fill="#C1C6DE" d="M4.654,1.758c0.531,0,0.972,0.501,0.972,1.119c0,0.619-0.441,1.118-0.972,1.118
	c-0.544,0-0.986-0.5-0.986-1.118S4.11,1.758,4.654,1.758"/>
<path fill="#C1C6DE" d="M2.212,4.597c0.338,0,0.632,0.134,0.868,0.336c-0.25,0.4-0.426,0.866-0.558,1.352l-0.25,0.866
	C2.241,7.285,2.256,7.42,2.315,7.537H0.549c-0.132,0-0.265-0.117-0.236-0.269l0.222-0.785C0.813,5.5,1.285,4.597,2.212,4.597"/>
<path fill="#C1C6DE" d="M2.212,2.326c0.486,0,0.882,0.45,0.882,1.003c0,0.55-0.396,1.001-0.882,1.001
	c-0.487,0-0.882-0.452-0.882-1.001C1.33,2.776,1.725,2.326,2.212,2.326"/>
<path fill="#C1C6DE" d="M7.099,2.326c0.486,0,0.883,0.45,0.883,1.003c0,0.55-0.396,1.001-0.883,1.001
	c-0.5,0-0.897-0.452-0.897-1.001C6.2,2.776,6.599,2.326,7.099,2.326"/>
</svg>
