<?xml version="1.0" encoding="utf-8"?>
<!-- Generator: Adobe Illustrator 16.0.0, SVG Export Plug-In . SVG Version: 6.00 Build 0)  -->
<!DOCTYPE svg PUBLIC "-//W3C//DTD SVG 1.1//EN" "http://www.w3.org/Graphics/SVG/1.1/DTD/svg11.dtd">
<svg version="1.1" id="Layer_1" xmlns="http://www.w3.org/2000/svg" xmlns:xlink="http://www.w3.org/1999/xlink" x="0px" y="0px"
	 width="44.977px" height="44.697px" viewBox="0 0 44.977 44.697" enable-background="new 0 0 44.977 44.697" xml:space="preserve">
<g>
	<path fill-rule="evenodd" clip-rule="evenodd" fill="#FFFFFF" d="M8.583,33.895c0-0.146,0-0.242,0-0.34
		c0-2.143-0.003-4.286,0.004-6.43c0-0.193-0.062-0.315-0.207-0.44c-2.988-2.57-4.6-5.836-4.877-9.759
		C3.152,11.957,5.234,8.122,9.095,5.163c2.352-1.803,5.047-2.827,7.963-3.303c4.4-0.717,8.443,0.168,12.102,2.71
		c2.623,1.822,4.584,4.186,5.664,7.225c0.758,2.134,0.848,4.322,0.445,6.536c-1.049,5.778-5.496,10.272-11.604,11.502
		c-1.774,0.357-3.562,0.424-5.36,0.264c-0.774-0.068-1.548-0.15-2.323-0.213c-0.127-0.01-0.277,0.033-0.392,0.098
		c-2.261,1.262-4.519,2.529-6.776,3.797C8.757,33.809,8.698,33.836,8.583,33.895z M11.769,17.76c1.066,0.008,1.93-0.815,1.938-1.846
		c0.008-1.029-0.85-1.868-1.912-1.872c-1.051-0.004-1.915,0.819-1.928,1.834C9.854,16.905,10.711,17.753,11.769,17.76z
		 M21.396,15.89c-0.006-1.03-0.871-1.858-1.935-1.849c-1.065,0.009-1.909,0.845-1.899,1.882c0.008,1.026,0.877,1.846,1.946,1.836
		C20.555,17.751,21.401,16.912,21.396,15.89z M25.248,15.898c-0.001,1.032,0.857,1.864,1.92,1.862
		c1.063-0.002,1.918-0.835,1.915-1.868c-0.002-1.017-0.856-1.845-1.908-1.85C26.11,14.037,25.249,14.867,25.248,15.898z"/>
	<path fill-rule="evenodd" clip-rule="evenodd" fill="#FFFFFF" d="M36.78,41.344c-0.111-0.061-0.188-0.102-0.264-0.146
		c-2.223-1.328-4.447-2.652-6.667-3.986c-0.183-0.109-0.352-0.137-0.561-0.107c-3.827,0.529-7.491,0.094-10.894-1.861
		c-1.16-0.668-2.213-1.479-3.196-2.385c-0.048-0.045-0.107-0.078-0.161-0.115c0.01-0.023,0.02-0.047,0.029-0.07
		c0.083-0.004,0.166-0.01,0.25-0.012c1.762-0.02,3.529,0.031,5.286-0.072c3.817-0.229,7.396-1.27,10.568-3.471
		c3.714-2.578,5.968-6.103,6.685-10.58c0.277-1.724,0.242-3.463,0.16-5.201c-0.004-0.097,0-0.194,0-0.359
		c0.314,0.278,0.598,0.513,0.865,0.764c1.986,1.874,3.403,4.093,3.999,6.779c0.786,3.541,0.063,6.797-1.966,9.777
		c-1.057,1.551-2.396,2.822-3.941,3.877c-0.148,0.1-0.199,0.205-0.198,0.381c0.007,2.16,0.005,4.32,0.005,6.48
		C36.78,41.123,36.78,41.213,36.78,41.344z"/>
</g>
</svg>
