<?xml version="1.0" encoding="utf-8"?>
<!-- Generator: Adobe Illustrator 16.0.0, SVG Export Plug-In . SVG Version: 6.00 Build 0)  -->
<!DOCTYPE svg PUBLIC "-//W3C//DTD SVG 1.1//EN" "http://www.w3.org/Graphics/SVG/1.1/DTD/svg11.dtd">
<svg version="1.1" id="Layer_1" xmlns="http://www.w3.org/2000/svg" xmlns:xlink="http://www.w3.org/1999/xlink" x="0px" y="0px"
	 width="91px" height="180px" viewBox="0 0 91 180" enable-background="new 0 0 91 180" xml:space="preserve">
<path fill="#FFFFFF" d="M30.74,101.268c0,2.209-1.529,3.727-3.908,3.727h-2.793v-7.455h2.793
	C29.211,97.539,30.74,99.047,30.74,101.268 M26.715,103.423c1.37,0,2.177-0.785,2.177-2.155s-0.807-2.178-2.177-2.178h-0.86v4.333
	H26.715z"/>
<path fill="#FFFFFF" d="M37.193,105.068c-1.604,0-2.857-0.796-2.91-2.305h1.933c0.053,0.575,0.414,0.85,0.924,0.85
	c0.531,0,0.871-0.265,0.871-0.699c0-1.381-3.728-0.639-3.707-3.282c0-1.413,1.158-2.199,2.719-2.199
	c1.625,0,2.719,0.809,2.793,2.231h-1.965c-0.032-0.479-0.371-0.766-0.86-0.776c-0.435-0.01-0.764,0.213-0.764,0.68
	c0,1.296,3.685,0.712,3.685,3.207C39.912,104.028,38.935,105.068,37.193,105.068"/>
<polygon fill="#FFFFFF" points="40.865,97.539 46.632,97.539 46.632,98.994 44.657,98.994 44.657,104.994 42.841,104.994 
	42.841,98.994 40.865,98.994 "/>
<path fill="#FFFFFF" d="M52.428,103.679h-2.781l-0.446,1.315h-1.901l2.697-7.455h2.103l2.698,7.455h-1.923L52.428,103.679z
	 M51.037,99.546l-0.913,2.729h1.837L51.037,99.546z"/>
<path fill="#FFFFFF" d="M58.903,97.539c1.827,0,2.74,1.052,2.74,2.348c0,0.934-0.511,1.815-1.657,2.155l1.721,2.952h-2.05
	l-1.55-2.813h-0.436v2.813h-1.816v-7.455H58.903z M58.797,99.047h-1.125v1.849h1.125c0.681,0,0.999-0.351,0.999-0.936
	C59.796,99.408,59.478,99.047,58.797,99.047"/>
<polygon fill="#FFFFFF" points="31.941,109.829 30.528,109.829 30.528,111.364 29.62,111.364 29.62,107.638 30.528,107.638 
	30.528,109.098 31.941,109.098 31.941,107.638 32.849,107.638 32.849,111.364 31.941,111.364 "/>
<path fill="#FFFFFF" d="M35.386,111.401c-1.057,0-1.917-0.791-1.917-1.912c0-1.119,0.86-1.905,1.917-1.905
	c1.062,0,1.906,0.786,1.906,1.905C37.292,110.61,36.442,111.401,35.386,111.401 M35.386,110.573c0.595,0,0.982-0.431,0.982-1.084
	c0-0.663-0.387-1.083-0.982-1.083c-0.605,0-0.988,0.42-0.988,1.083C34.397,110.143,34.781,110.573,35.386,110.573"/>
<polygon fill="#FFFFFF" points="38.825,107.637 38.825,110.663 40.014,110.663 40.014,111.365 37.917,111.365 37.917,107.637 "/>
<path fill="#FFFFFF" d="M43.921,109.501c0,1.104-0.764,1.863-1.954,1.863h-1.396v-3.727h1.396
	C43.157,107.638,43.921,108.391,43.921,109.501 M41.909,110.578c0.685,0,1.088-0.393,1.088-1.077c0-0.686-0.403-1.09-1.088-1.09
	h-0.43v2.167H41.909z"/>
<rect x="44.552" y="107.637" fill="#FFFFFF" width="0.908" height="3.729"/>
<polygon fill="#FFFFFF" points="49.574,107.637 49.574,111.365 48.667,111.365 47.147,109.065 47.147,111.365 46.239,111.365 
	46.239,107.637 47.147,107.637 48.667,109.947 48.667,107.637 "/>
<path fill="#FFFFFF" d="M53.831,108.815h-1.003c-0.139-0.25-0.393-0.383-0.732-0.383c-0.584,0-0.973,0.414-0.973,1.063
	c0,0.689,0.394,1.093,1.046,1.093c0.452,0,0.766-0.239,0.903-0.658h-1.153v-0.67h1.977v0.845c-0.191,0.644-0.813,1.285-1.795,1.285
	c-1.115,0-1.901-0.779-1.901-1.895c0-1.116,0.781-1.902,1.896-1.902C52.987,107.594,53.636,108.051,53.831,108.815"/>
<path fill="#FFFFFF" d="M55.869,111.401c-0.802,0-1.428-0.397-1.455-1.151h0.967c0.026,0.286,0.207,0.424,0.462,0.424
	c0.266,0,0.436-0.132,0.436-0.35c0-0.691-1.864-0.318-1.854-1.642c0-0.706,0.579-1.099,1.359-1.099c0.813,0,1.358,0.402,1.396,1.115
	h-0.981c-0.018-0.239-0.187-0.383-0.432-0.389c-0.217-0.005-0.382,0.107-0.382,0.34c0,0.648,1.842,0.355,1.842,1.604
	C57.228,110.881,56.74,111.401,55.869,111.401"/>
<g>
	<defs>
		<rect id="SVGID_1_" width="91" height="180"/>
	</defs>
	<clipPath id="SVGID_2_">
		<use xlink:href="#SVGID_1_"  overflow="visible"/>
	</clipPath>
	
		<linearGradient id="SVGID_3_" gradientUnits="userSpaceOnUse" x1="1.7109" y1="179.459" x2="2.7109" y2="179.459" gradientTransform="matrix(0 180.3177 180.3177 0 -32314.2266 -308.625)">
		<stop  offset="0" style="stop-color:#4D479D"/>
		<stop  offset="1" style="stop-color:#38C3DF"/>
	</linearGradient>
	<rect clip-path="url(#SVGID_2_)" fill="url(#SVGID_3_)" width="91" height="180"/>
</g>
</svg>
