<?xml version="1.0" encoding="utf-8"?>
<!-- Generator: Adobe Illustrator 16.0.0, SVG Export Plug-In . SVG Version: 6.00 Build 0)  -->
<!DOCTYPE svg PUBLIC "-//W3C//DTD SVG 1.1//EN" "http://www.w3.org/Graphics/SVG/1.1/DTD/svg11.dtd">
<svg version="1.1" id="Layer_1" xmlns="http://www.w3.org/2000/svg" xmlns:xlink="http://www.w3.org/1999/xlink" x="0px" y="0px"
	 width="9.295px" height="9.295px" viewBox="0 0 9.295 9.295" enable-background="new 0 0 9.295 9.295" xml:space="preserve">
<path fill="#751A13" d="M2.031,8.802c-0.127,0-0.255-0.043-0.36-0.125c-0.158-0.125-0.24-0.322-0.216-0.523l0.116-1
	C0.7,6.425,0.207,5.425,0.207,4.359c0-2.131,1.991-3.864,4.44-3.864c2.448,0,4.44,1.733,4.44,3.864c0,2.359-2.443,4.242-5.233,3.805
	L2.233,8.765C2.168,8.788,2.099,8.802,2.031,8.802 M4.647,1.658c-1.808,0-3.278,1.212-3.278,2.701c0,0.791,0.42,1.541,1.153,2.058
	c0.174,0.122,0.267,0.33,0.24,0.542L2.72,7.345l0.881-0.324C3.7,6.979,3.808,6.976,3.91,6.993C6.045,7.397,7.925,6.05,7.925,4.359
	C7.925,2.87,6.454,1.658,4.647,1.658"/>
</svg>
