<?xml version="1.0" encoding="utf-8"?>
<!-- Generator: Adobe Illustrator 16.0.0, SVG Export Plug-In . SVG Version: 6.00 Build 0)  -->
<!DOCTYPE svg PUBLIC "-//W3C//DTD SVG 1.1//EN" "http://www.w3.org/Graphics/SVG/1.1/DTD/svg11.dtd">
<svg version="1.1" id="Layer_1" xmlns="http://www.w3.org/2000/svg" xmlns:xlink="http://www.w3.org/1999/xlink" x="0px" y="0px"
	 width="9.295px" height="9.295px" viewBox="0 0 9.295 9.295" enable-background="new 0 0 9.295 9.295" xml:space="preserve">
<g>
	<path fill-rule="evenodd" clip-rule="evenodd" fill="#C1C6DE" d="M4.48,8.876C4.135,8.774,3.862,8.585,3.734,8.233
		C3.55,7.724,3.82,7.159,4.327,6.987c0.515-0.176,1.071,0.094,1.241,0.6c0.172,0.518-0.1,1.063-0.615,1.238
		c-0.045,0.014-0.09,0.033-0.135,0.051C4.705,8.876,4.592,8.876,4.48,8.876z"/>
	<path fill-rule="evenodd" clip-rule="evenodd" fill="#C1C6DE" d="M4.817,0.434c0.35,0.108,0.627,0.3,0.749,0.663
		C5.739,1.611,5.463,2.16,4.949,2.331C4.438,2.5,3.887,2.217,3.724,1.702C3.561,1.185,3.845,0.642,4.362,0.479
		c0.04-0.013,0.078-0.03,0.118-0.044C4.592,0.434,4.705,0.434,4.817,0.434z"/>
	<path fill-rule="evenodd" clip-rule="evenodd" fill="#C1C6DE" d="M4.65,5.622c-0.551,0-0.966-0.416-0.969-0.973
		C3.679,4.114,4.104,3.691,4.645,3.689c0.547-0.001,0.968,0.42,0.969,0.974C5.616,5.198,5.19,5.62,4.65,5.622z"/>
</g>
</svg>
