<?xml version="1.0" encoding="utf-8"?>
<!-- Generator: Adobe Illustrator 16.0.0, SVG Export Plug-In . SVG Version: 6.00 Build 0)  -->
<!DOCTYPE svg PUBLIC "-//W3C//DTD SVG 1.1//EN" "http://www.w3.org/Graphics/SVG/1.1/DTD/svg11.dtd">
<svg version="1.1" id="Layer_1" xmlns="http://www.w3.org/2000/svg" xmlns:xlink="http://www.w3.org/1999/xlink" x="0px" y="0px"
	 width="44.976px" height="57.895px" viewBox="0 0 44.976 57.895" enable-background="new 0 0 44.976 57.895" xml:space="preserve">
<path fill="#FFFFFF" d="M9.74,40.268c0,2.209-1.529,3.727-3.908,3.727H3.039v-7.455h2.793C8.211,36.539,9.74,38.047,9.74,40.268
	 M5.715,42.423c1.37,0,2.177-0.785,2.177-2.155S7.084,38.09,5.715,38.09h-0.86v4.333H5.715z"/>
<path fill="#FFFFFF" d="M16.193,44.068c-1.604,0-2.857-0.796-2.91-2.305h1.933c0.053,0.575,0.414,0.85,0.924,0.85
	c0.531,0,0.871-0.265,0.871-0.699c0-1.381-3.728-0.639-3.707-3.282c0-1.413,1.158-2.199,2.719-2.199
	c1.625,0,2.719,0.809,2.793,2.231h-1.965c-0.032-0.479-0.371-0.766-0.86-0.776c-0.435-0.01-0.764,0.213-0.764,0.68
	c0,1.296,3.685,0.712,3.685,3.207C18.912,43.028,17.935,44.068,16.193,44.068"/>
<polygon fill="#FFFFFF" points="19.865,36.539 25.632,36.539 25.632,37.994 23.657,37.994 23.657,43.994 21.841,43.994 
	21.841,37.994 19.865,37.994 "/>
<path fill="#FFFFFF" d="M31.428,42.679h-2.781L28.2,43.994h-1.901l2.697-7.455h2.103l2.698,7.455h-1.923L31.428,42.679z
	 M30.037,38.546l-0.913,2.729h1.837L30.037,38.546z"/>
<path fill="#FFFFFF" d="M37.903,36.539c1.827,0,2.74,1.052,2.74,2.348c0,0.934-0.511,1.815-1.657,2.155l1.721,2.952h-2.05
	l-1.55-2.813h-0.436v2.813h-1.816v-7.455H37.903z M37.797,38.047h-1.125v1.849h1.125c0.681,0,0.999-0.351,0.999-0.936
	C38.796,38.408,38.478,38.047,37.797,38.047"/>
<polygon fill="#FFFFFF" points="10.941,48.829 9.528,48.829 9.528,50.364 8.62,50.364 8.62,46.638 9.528,46.638 9.528,48.098 
	10.941,48.098 10.941,46.638 11.849,46.638 11.849,50.364 10.941,50.364 "/>
<path fill="#FFFFFF" d="M14.386,50.401c-1.057,0-1.917-0.791-1.917-1.912c0-1.119,0.86-1.905,1.917-1.905
	c1.062,0,1.906,0.786,1.906,1.905C16.292,49.61,15.442,50.401,14.386,50.401 M14.386,49.573c0.595,0,0.982-0.431,0.982-1.084
	c0-0.663-0.387-1.083-0.982-1.083c-0.605,0-0.988,0.42-0.988,1.083C13.397,49.143,13.781,49.573,14.386,49.573"/>
<polygon fill="#FFFFFF" points="17.825,46.637 17.825,49.663 19.014,49.663 19.014,50.365 16.917,50.365 16.917,46.637 "/>
<path fill="#FFFFFF" d="M22.921,48.501c0,1.104-0.764,1.863-1.954,1.863h-1.396v-3.727h1.396
	C22.157,46.638,22.921,47.391,22.921,48.501 M20.909,49.578c0.685,0,1.088-0.393,1.088-1.077c0-0.686-0.403-1.09-1.088-1.09h-0.43
	v2.167H20.909z"/>
<rect x="23.552" y="46.637" fill="#FFFFFF" width="0.908" height="3.729"/>
<polygon fill="#FFFFFF" points="28.574,46.637 28.574,50.365 27.667,50.365 26.147,48.065 26.147,50.365 25.239,50.365 
	25.239,46.637 26.147,46.637 27.667,48.947 27.667,46.637 "/>
<path fill="#FFFFFF" d="M32.831,47.815h-1.003c-0.139-0.25-0.393-0.383-0.732-0.383c-0.584,0-0.973,0.414-0.973,1.063
	c0,0.689,0.394,1.093,1.046,1.093c0.452,0,0.766-0.239,0.903-0.658h-1.153v-0.67h1.977v0.845c-0.191,0.644-0.813,1.285-1.795,1.285
	c-1.115,0-1.901-0.779-1.901-1.895c0-1.116,0.781-1.902,1.896-1.902C31.987,46.594,32.636,47.051,32.831,47.815"/>
<path fill="#FFFFFF" d="M34.869,50.401c-0.802,0-1.428-0.397-1.455-1.151h0.967c0.026,0.286,0.207,0.424,0.462,0.424
	c0.266,0,0.436-0.132,0.436-0.35c0-0.691-1.864-0.318-1.854-1.642c0-0.706,0.579-1.099,1.359-1.099c0.813,0,1.358,0.402,1.396,1.115
	h-0.981c-0.018-0.239-0.187-0.383-0.432-0.389c-0.217-0.005-0.382,0.107-0.382,0.34c0,0.648,1.842,0.355,1.842,1.604
	C36.228,49.881,35.74,50.401,34.869,50.401"/>
<path fill-rule="evenodd" clip-rule="evenodd" fill="#FFFFFF" d="M20.88,16.171h3.075l1.538-3.931H20.88h-5.763h-3.128H5.424
	c0.989,2.393,2.313,3.931,5,3.931h3.035h1.658H20.88z"/>
<path fill-rule="evenodd" clip-rule="evenodd" fill="#FFFFFF" d="M13.66,24.02h0.668h4.693h1.859l1.538-3.931H20.88h-1.859h-5.04
	H9.328c0.909,2.192,2.086,3.663,4.332,3.904V24.02z M20.88,27.576h-7.314c1.003,2.407,2.327,3.931,5.014,3.931h1.351h3.329h3.824
	c2.326,0,4.385-0.44,6.177-1.217l-6.953-6.872L20.88,27.576z"/>
<path fill-rule="evenodd" clip-rule="evenodd" fill="#A9CF38" d="M34.344,29.769C45.321,23.886,44.265,4.94,26.335,4.94h-5.027
	h-1.377h-7.113H4.461H3.124c1.003,2.407,2.327,3.931,5.014,3.931h1.551h3.129h8.062h1.364h4.278l2.246,6.953h9.213l-7.769,4.465
	L34.344,29.769z"/>
</svg>
