<?xml version="1.0" encoding="utf-8"?>
<!-- Generator: Adobe Illustrator 16.0.0, SVG Export Plug-In . SVG Version: 6.00 Build 0)  -->
<!DOCTYPE svg PUBLIC "-//W3C//DTD SVG 1.1//EN" "http://www.w3.org/Graphics/SVG/1.1/DTD/svg11.dtd">
<svg version="1.1" id="Layer_1" xmlns="http://www.w3.org/2000/svg" xmlns:xlink="http://www.w3.org/1999/xlink" x="0px" y="0px"
	 width="9.295px" height="9.295px" viewBox="0 0 9.295 9.295" enable-background="new 0 0 9.295 9.295" xml:space="preserve">
<path fill="#751A13" d="M5.696,1.324c0,0.017,0,0.034-0.004,0.05c0,0.017,0,0.034-0.004,0.051c0,0.022-0.004,0.048-0.008,0.072
	C5.674,1.523,5.671,1.55,5.663,1.573c-0.014,0.05-0.029,0.098-0.051,0.142C5.608,1.723,5.608,1.728,5.604,1.736
	c-0.01,0.022-0.023,0.045-0.035,0.067C5.567,1.808,5.563,1.814,5.56,1.821C5.513,1.898,5.456,1.968,5.396,2.03
	C5.388,2.035,5.38,2.041,5.376,2.048C5.365,2.055,5.353,2.066,5.342,2.073C5.334,2.08,5.327,2.088,5.317,2.093
	C5.304,2.106,5.285,2.117,5.269,2.131c-0.002,0-0.004,0-0.006,0.004C5.237,2.149,5.216,2.164,5.19,2.179
	c-0.021,0.01-0.043,0.022-0.066,0.032c-0.002,0-0.004,0-0.004,0.003c-0.046,0.019-0.093,0.037-0.14,0.05
	C4.967,2.266,4.958,2.27,4.947,2.271C4.9,2.284,4.849,2.292,4.796,2.295c-0.017,0-0.035,0.004-0.049,0.004c-0.007,0-0.018,0-0.025,0
	c-0.009,0-0.017,0-0.025,0c-0.018,0-0.033-0.004-0.051-0.004c-0.051-0.003-0.1-0.011-0.151-0.023
	c-0.01-0.002-0.02-0.006-0.032-0.008c-0.047-0.013-0.094-0.031-0.14-0.049C4.322,2.211,4.32,2.211,4.32,2.211
	C4.3,2.204,4.278,2.191,4.258,2.183C4.231,2.168,4.206,2.149,4.18,2.135C4.178,2.131,4.176,2.131,4.173,2.131
	C4.155,2.117,4.14,2.106,4.122,2.093C4.115,2.088,4.107,2.081,4.1,2.073C4.089,2.066,4.078,2.055,4.067,2.048
	c-0.01-0.013-0.022-0.024-0.034-0.035c-0.057-0.058-0.107-0.12-0.149-0.192C3.88,1.814,3.876,1.808,3.873,1.803
	C3.86,1.781,3.849,1.758,3.837,1.736C3.835,1.728,3.832,1.723,3.828,1.715C3.81,1.671,3.793,1.623,3.78,1.573
	C3.773,1.55,3.767,1.523,3.763,1.497C3.757,1.474,3.756,1.449,3.752,1.425C3.75,1.408,3.75,1.392,3.749,1.375
	c0-0.017-0.002-0.034-0.002-0.05c0-0.016,0.003-0.033,0.005-0.05c0-0.01,0.004-0.021,0.004-0.03c0-0.007-0.002-0.013,0-0.021
	c0-0.005,0-0.011,0-0.017C3.757,1.188,3.759,1.17,3.763,1.152c0.006-0.026,0.01-0.053,0.018-0.077
	c0.013-0.049,0.03-0.097,0.05-0.142c0-0.003,0.002-0.007,0.004-0.009c0.001-0.003,0.001-0.008,0.003-0.012
	C3.849,0.891,3.86,0.868,3.873,0.846C3.876,0.841,3.88,0.834,3.884,0.827c0.045-0.076,0.1-0.147,0.165-0.208
	C4.057,0.614,4.06,0.608,4.067,0.602C4.078,0.593,4.089,0.583,4.1,0.575c0.007-0.006,0.015-0.014,0.022-0.019
	C4.14,0.543,4.155,0.532,4.173,0.518C4.176,0.517,4.178,0.517,4.18,0.515c0.043-0.03,0.091-0.056,0.14-0.078
	c0,0,0.002,0,0.004-0.002c0.045-0.02,0.093-0.037,0.14-0.05C4.475,0.383,4.486,0.38,4.495,0.378c0.051-0.012,0.1-0.021,0.151-0.024
	c0.018,0,0.033-0.002,0.051-0.002c0.009,0,0.016,0,0.025,0c0.007,0,0.018,0,0.025,0c0.015,0,0.033,0.002,0.049,0.002
	C4.849,0.356,4.9,0.366,4.947,0.377c0.011,0.002,0.02,0.005,0.033,0.007c0.047,0.013,0.094,0.03,0.14,0.05
	c0,0.002,0.002,0.002,0.004,0.002C5.173,0.459,5.22,0.484,5.263,0.515c0.002,0.002,0.004,0.002,0.006,0.003
	c0.018,0.014,0.035,0.025,0.049,0.038c0.011,0.005,0.018,0.013,0.024,0.019c0.011,0.009,0.023,0.019,0.034,0.027
	c0.004,0.006,0.012,0.012,0.02,0.017C5.456,0.68,5.513,0.751,5.56,0.827c0.004,0.007,0.008,0.014,0.01,0.019
	C5.581,0.868,5.593,0.89,5.604,0.912C5.608,0.92,5.608,0.926,5.612,0.933c0.021,0.045,0.037,0.093,0.051,0.142
	c0.008,0.024,0.011,0.05,0.02,0.077C5.685,1.175,5.688,1.2,5.688,1.224c0.004,0.01,0.004,0.017,0.004,0.024c0,0.009,0,0.017,0,0.026
	C5.696,1.291,5.696,1.308,5.696,1.324"/>
<path fill="#751A13" d="M6.332,3.229V4.24c0,0.021,0,0.023-0.021,0.023H3.129c-0.018,0-0.037-0.004-0.037-0.023V3.229
	c0-0.015,0-0.029,0-0.047C3.104,2.942,3.2,2.724,3.351,2.561c0.004-0.004,0.007-0.009,0.013-0.015
	c0.075-0.078,0.162-0.144,0.259-0.189C3.628,2.353,3.636,2.35,3.641,2.346c0.026-0.013,0.055-0.023,0.083-0.032
	C3.729,2.312,3.735,2.31,3.742,2.308c0.024-0.009,0.05-0.016,0.076-0.023c0.032,0.031,0.065,0.06,0.099,0.087
	C4.005,2.44,4.1,2.497,4.202,2.542C4.22,2.549,4.238,2.559,4.26,2.566c0.073,0.027,0.149,0.051,0.229,0.063
	c0.076,0.015,0.152,0.022,0.232,0.022c0.089,0,0.178-0.009,0.264-0.027c0.011-0.002,0.023-0.005,0.031-0.005H5.02h0.046
	c0.042,0,0.083-0.033,0.125-0.051c0.018-0.005,0.033-0.02,0.049-0.027c0.078-0.035,0.156-0.082,0.225-0.135
	c0.008,0,0.016-0.007,0.021-0.013C5.532,2.36,5.576,2.324,5.62,2.284c0.4,0.091,0.693,0.458,0.716,0.896
	C6.336,3.197,6.332,3.215,6.332,3.229"/>
<path fill="#751A13" d="M2.916,5.92c0,0.017,0,0.032-0.002,0.05c0,0.016-0.002,0.033-0.004,0.051C2.909,6.043,2.904,6.067,2.9,6.093
	C2.895,6.116,2.89,6.146,2.884,6.169c-0.013,0.049-0.03,0.096-0.05,0.141C2.83,6.315,2.828,6.323,2.824,6.33
	C2.815,6.353,2.802,6.374,2.791,6.396C2.787,6.403,2.783,6.407,2.779,6.416C2.733,6.491,2.678,6.563,2.614,6.625
	C2.608,6.628,2.602,6.636,2.595,6.642C2.584,6.649,2.573,6.659,2.563,6.668C2.554,6.677,2.547,6.683,2.54,6.687
	C2.525,6.701,2.506,6.712,2.49,6.726C2.488,6.728,2.484,6.728,2.482,6.729C2.459,6.746,2.435,6.759,2.411,6.774
	C2.389,6.785,2.367,6.796,2.344,6.808c-0.002,0-0.004,0-0.004,0.002c-0.046,0.02-0.093,0.037-0.142,0.049
	c-0.011,0.004-0.02,0.006-0.032,0.008C2.119,6.878,2.069,6.888,2.017,6.89C2,6.89,1.983,6.892,1.966,6.892c-0.007,0-0.017,0-0.024,0
	c-0.01,0-0.017,0-0.026,0c-0.017,0-0.034-0.002-0.05-0.002C1.815,6.888,1.765,6.878,1.715,6.866c-0.009-0.002-0.021-0.006-0.03-0.01
	C1.637,6.847,1.588,6.828,1.543,6.81C1.542,6.808,1.54,6.808,1.54,6.808c-0.02-0.01-0.041-0.022-0.061-0.031
	C1.453,6.763,1.426,6.745,1.401,6.729C1.399,6.728,1.397,6.728,1.393,6.726C1.376,6.712,1.36,6.701,1.343,6.687
	c-0.008-0.004-0.015-0.01-0.022-0.019C1.309,6.659,1.298,6.649,1.287,6.642C1.275,6.628,1.265,6.616,1.253,6.606
	c-0.058-0.059-0.108-0.121-0.149-0.19c-0.003-0.009-0.007-0.013-0.01-0.021C1.08,6.374,1.069,6.353,1.058,6.33
	C1.056,6.323,1.053,6.315,1.049,6.31C1.03,6.265,1.014,6.218,1,6.169C0.993,6.146,0.987,6.116,0.983,6.093
	c-0.005-0.025-0.006-0.05-0.01-0.072C0.971,6.003,0.971,5.985,0.968,5.97c0-0.018-0.002-0.033-0.002-0.05
	c0-0.019,0-0.034,0.002-0.052c0-0.01,0.002-0.021,0.002-0.028c0-0.008,0-0.015,0.002-0.022c0-0.004,0.002-0.01,0.002-0.016
	c0.003-0.02,0.006-0.039,0.009-0.057C0.987,5.72,0.993,5.694,1,5.669c0.014-0.048,0.03-0.098,0.049-0.143
	c0.002-0.004,0.004-0.006,0.006-0.006c0.001-0.004,0.001-0.008,0.003-0.014C1.069,5.485,1.08,5.462,1.094,5.438
	c0.003-0.004,0.007-0.01,0.011-0.018C1.149,5.345,1.206,5.274,1.27,5.214c0.005-0.007,0.012-0.011,0.017-0.018
	c0.011-0.01,0.022-0.02,0.034-0.027c0.007-0.006,0.015-0.014,0.022-0.021c0.017-0.01,0.034-0.021,0.05-0.036
	c0.004-0.001,0.006-0.001,0.008-0.003C1.445,5.08,1.492,5.054,1.54,5.031c0,0,0.001,0,0.003-0.002
	c0.044-0.02,0.094-0.036,0.142-0.051c0.009,0,0.021-0.004,0.03-0.007c0.05-0.011,0.1-0.02,0.151-0.023
	c0.016,0,0.033-0.002,0.05-0.002c0.009,0,0.017,0,0.026,0c0.007,0,0.017,0,0.024,0c0.017,0,0.033,0.002,0.051,0.002
	c0.052,0.003,0.102,0.013,0.15,0.023c0.012,0.003,0.021,0.007,0.032,0.007C2.247,4.993,2.294,5.009,2.34,5.029
	c0,0.002,0.002,0.002,0.004,0.002C2.393,5.054,2.438,5.08,2.482,5.109C2.484,5.111,2.488,5.111,2.49,5.112
	c0.016,0.015,0.035,0.025,0.05,0.036c0.007,0.008,0.015,0.016,0.023,0.021c0.011,0.01,0.021,0.018,0.033,0.027
	c0.006,0.007,0.013,0.011,0.019,0.018C2.678,5.274,2.734,5.345,2.78,5.422C2.784,5.429,2.787,5.437,2.791,5.44
	c0.012,0.021,0.024,0.045,0.034,0.066c0.003,0.01,0.005,0.014,0.009,0.02c0.02,0.045,0.037,0.095,0.05,0.143
	C2.89,5.694,2.895,5.72,2.9,5.745c0.003,0.025,0.008,0.049,0.01,0.072c0.002,0.012,0.002,0.019,0.002,0.025
	c0.002,0.008,0.002,0.016,0.002,0.023C2.916,5.886,2.916,5.901,2.916,5.92"/>
<path fill="#751A13" d="M3.571,7.823v1.01c0,0.021-0.02,0.023-0.038,0.023H0.351c-0.021,0-0.045-0.004-0.045-0.023v-1.01
	c0-0.016,0.002-0.031,0.004-0.047c0.011-0.239,0.109-0.457,0.258-0.621C0.573,7.151,0.579,7.144,0.584,7.14
	c0.073-0.078,0.163-0.146,0.26-0.189c0.005-0.004,0.012-0.006,0.017-0.01c0.027-0.014,0.054-0.024,0.082-0.033
	C0.95,6.903,0.956,6.903,0.961,6.901c0.026-0.01,0.053-0.018,0.076-0.022c0.032,0.028,0.065,0.06,0.101,0.086
	C1.226,7.034,1.321,7.09,1.421,7.136c0.021,0.01,0.039,0.016,0.058,0.023C1.554,7.188,1.63,7.21,1.708,7.226
	C1.784,7.239,1.862,7.246,1.94,7.246c0.091,0,0.178-0.011,0.266-0.028c0.012,0,0.021-0.008,0.032-0.008h0.048
	c0.043,0,0.084-0.031,0.125-0.047c0.016-0.008,0.032-0.021,0.048-0.031C2.54,7.101,2.614,7.05,2.683,6.999
	c0.009,0,0.017-0.008,0.024-0.016c0.047-0.031,0.09-0.067,0.132-0.105c0.4,0.092,0.706,0.458,0.726,0.896
	C3.565,7.792,3.571,7.808,3.571,7.823"/>
<path fill="#751A13" d="M8.397,5.901c0,0.019,0,0.033-0.004,0.051c0,0.02,0,0.033-0.004,0.051c0,0.023-0.005,0.049-0.008,0.073
	c-0.007,0.026-0.01,0.051-0.018,0.075C8.353,6.198,8.335,6.249,8.313,6.294C8.31,6.302,8.31,6.306,8.306,6.313
	C8.295,6.336,8.284,6.358,8.271,6.381c-0.002,0.005-0.006,0.011-0.01,0.019C8.215,6.476,8.157,6.545,8.097,6.606
	c-0.007,0.008-0.016,0.01-0.02,0.019C8.065,6.634,8.056,6.644,8.043,6.651C8.035,6.657,8.028,6.665,8.021,6.672
	C8.005,6.683,7.985,6.694,7.97,6.708C7.968,6.71,7.965,6.71,7.963,6.712C7.94,6.729,7.917,6.741,7.892,6.756
	C7.87,6.767,7.849,6.776,7.826,6.79c-0.005,0-0.005,0-0.005,0.002c-0.047,0.02-0.094,0.036-0.141,0.051
	c-0.012,0-0.021,0.004-0.033,0.008C7.601,6.86,7.55,6.87,7.497,6.874c-0.016,0-0.034,0.002-0.049,0.002c-0.008,0-0.02,0-0.025,0
	c-0.009,0-0.018,0-0.025,0c-0.019,0-0.032-0.002-0.051-0.002C7.296,6.87,7.246,6.86,7.194,6.851
	c-0.008-0.004-0.02-0.008-0.027-0.008c-0.05-0.015-0.098-0.031-0.143-0.051C7.022,6.79,7.021,6.79,7.021,6.79
	C7,6.78,6.979,6.771,6.958,6.759C6.933,6.745,6.905,6.729,6.88,6.712C6.879,6.71,6.878,6.71,6.874,6.708
	C6.856,6.694,6.841,6.683,6.823,6.672C6.815,6.665,6.808,6.657,6.801,6.651C6.79,6.644,6.778,6.634,6.769,6.625
	C6.758,6.614,6.747,6.603,6.735,6.593C6.679,6.534,6.627,6.47,6.587,6.399C6.583,6.392,6.579,6.386,6.574,6.381
	C6.562,6.358,6.55,6.336,6.539,6.313c-0.003-0.008-0.007-0.012-0.011-0.02C6.511,6.249,6.494,6.198,6.481,6.151
	C6.474,6.127,6.47,6.103,6.465,6.076c-0.006-0.024-0.009-0.05-0.013-0.073c0-0.018,0-0.031-0.004-0.051c0-0.018,0-0.032,0-0.051
	c0-0.018-0.008-0.033-0.008-0.049c0-0.01-0.004-0.021-0.004-0.031c0-0.008,0.008-0.014,0.008-0.02
	C6.448,5.796,6.452,5.79,6.452,5.785c0-0.019,0.007-0.036,0.011-0.058c0.004-0.024,0.011-0.053,0.017-0.076
	c0.014-0.049,0.031-0.096,0.049-0.139C6.533,5.509,6.533,5.504,6.537,5.5c0-0.003,0-0.007,0.003-0.011
	c0.01-0.02,0.021-0.043,0.034-0.064c0.005-0.007,0.009-0.013,0.013-0.02C6.63,5.329,6.685,5.259,6.75,5.196
	c0.008-0.004,0.011-0.01,0.019-0.016c0.01-0.01,0.021-0.02,0.032-0.029C6.81,5.145,6.815,5.137,6.823,5.134
	C6.841,5.12,6.856,5.109,6.874,5.096c0.004-0.002,0.005-0.002,0.007-0.004c0.046-0.031,0.091-0.056,0.142-0.078c0,0,0,0,0.002-0.001
	c0.047-0.02,0.094-0.039,0.144-0.049c0.009-0.003,0.021-0.007,0.028-0.009c0.051-0.011,0.101-0.02,0.15-0.023
	c0.019,0,0.032-0.002,0.051-0.002c0.01,0,0.018,0,0.025,0s0.02,0,0.025,0c0.015,0,0.033,0.002,0.049,0.002
	c0.053,0.003,0.104,0.011,0.15,0.022C7.659,4.956,7.67,4.96,7.681,4.963c0.049,0.011,0.096,0.029,0.143,0.049
	c0,0.001,0,0.001,0.004,0.001C7.875,5.035,7.922,5.06,7.964,5.091C7.965,5.094,7.968,5.094,7.97,5.096
	C7.985,5.109,8.005,5.12,8.021,5.134c0.008,0.003,0.016,0.011,0.022,0.017c0.013,0.01,0.022,0.02,0.034,0.029
	c0.004,0.006,0.013,0.012,0.02,0.016c0.062,0.063,0.118,0.133,0.164,0.209c0.004,0.007,0.008,0.013,0.012,0.02
	C8.284,5.446,8.295,5.47,8.306,5.489C8.31,5.498,8.31,5.505,8.313,5.513c0.021,0.043,0.037,0.092,0.051,0.141
	c0.008,0.023,0.011,0.051,0.019,0.076C8.386,5.752,8.39,5.776,8.39,5.802c0.004,0.01,0.004,0.016,0.004,0.023
	c0,0.011,0,0.018,0,0.027C8.397,5.868,8.397,5.886,8.397,5.901"/>
<path fill="#751A13" d="M9.039,7.808v1.01c0,0.021-0.006,0.039-0.024,0.039H5.83c-0.019,0-0.03-0.018-0.03-0.039v-1.01
	c0-0.016-0.004-0.029-0.002-0.049c0.012-0.24,0.105-0.457,0.254-0.621c0.008-0.004,0.012-0.01,0.016-0.015
	c0.072-0.078,0.16-0.142,0.259-0.188c0.006-0.004,0.012-0.008,0.017-0.012C6.368,6.912,6.397,6.901,6.425,6.89
	c0.006,0,0.012-0.002,0.021-0.004c0.021-0.01,0.049-0.018,0.076-0.021C6.55,6.892,6.584,6.924,6.62,6.948
	c0.088,0.07,0.182,0.128,0.283,0.172C6.922,7.127,6.942,7.14,6.96,7.146c0.076,0.026,0.152,0.049,0.229,0.062
	c0.076,0.015,0.154,0.022,0.234,0.022c0.09,0,0.176-0.016,0.266-0.033C7.7,7.194,7.71,7.183,7.72,7.183h0.049
	c0.041,0,0.084-0.027,0.123-0.041c0.018-0.008,0.033-0.014,0.047-0.019c0.08-0.036,0.158-0.073,0.227-0.128
	c0.008,0,0.016-0.012,0.023-0.018c0.045-0.035,0.09-0.074,0.131-0.113c0.4,0.093,0.699,0.455,0.721,0.895
	C9.04,7.776,9.039,7.792,9.039,7.808"/>
<path fill="#751A13" d="M4.704,4.505H4.64c-0.089,0-0.162,0.073-0.162,0.16v1.355c0,0.088,0.073,0.16,0.162,0.16h0.064
	c0.087,0,0.16-0.072,0.16-0.16V4.665C4.863,4.578,4.791,4.505,4.704,4.505"/>
<path fill="#751A13" d="M4.54,5.84L4.502,5.888C4.445,5.956,4.46,6.06,4.529,6.112l1.058,0.847c0.068,0.054,0.169,0.042,0.227-0.026
	l0.039-0.049c0.053-0.07,0.043-0.172-0.026-0.227l-1.06-0.844C4.696,5.761,4.595,5.771,4.54,5.84"/>
<path fill="#751A13" d="M3.461,6.933L3.422,6.884c-0.055-0.07-0.043-0.172,0.026-0.227l1.059-0.844
	C4.576,5.761,4.678,5.771,4.732,5.84l0.04,0.052C4.827,5.96,4.814,6.06,4.745,6.112L3.687,6.959
	C3.617,7.013,3.516,7.001,3.461,6.933"/>
</svg>
