<?xml version="1.0" encoding="utf-8"?>
<!-- Generator: Adobe Illustrator 16.0.0, SVG Export Plug-In . SVG Version: 6.00 Build 0)  -->
<!DOCTYPE svg PUBLIC "-//W3C//DTD SVG 1.1//EN" "http://www.w3.org/Graphics/SVG/1.1/DTD/svg11.dtd">
<svg version="1.1" id="Layer_1" xmlns="http://www.w3.org/2000/svg" xmlns:xlink="http://www.w3.org/1999/xlink" x="0px" y="0px"
	 width="9.295px" height="9.295px" viewBox="0 0 9.295 9.295" enable-background="new 0 0 9.295 9.295" xml:space="preserve">
<path fill="#751A13" d="M3.132,7.931c0.597,0.938,2.067,0.996,2.713,0.441c-0.011-0.008-0.023-0.01-0.031-0.018
	C5.798,8.34,5.776,8.315,5.76,8.291C5.7,8.207,5.731,8.153,5.769,8.124c0.021-0.02,0.045-0.029,0.074-0.037
	c0.164-0.029,0.498-0.08,0.557,0.012C6.474,8.209,6.36,8.479,6.304,8.64c-0.027,0.075-0.078,0.127-0.158,0.1
	C6.099,8.724,6.071,8.665,6.026,8.616C5.892,8.675,5.838,8.729,5.681,8.799C5.064,9.081,4.5,8.995,3.91,8.714
	C3.67,8.599,3.446,8.429,3.291,8.196C3.235,8.11,3.187,8.021,3.132,7.931"/>
<path fill="#751A13" d="M2.67,1.588C1.558,1.579,0.712,2.782,0.826,3.625c0.01-0.005,0.019-0.012,0.031-0.014
	C0.879,3.604,0.909,3.598,0.94,3.598C1.043,3.595,1.069,3.65,1.078,3.696c0.003,0.028-0.001,0.056-0.014,0.08
	C1.003,3.933,0.862,4.242,0.752,4.242C0.62,4.242,0.455,4,0.354,3.866c-0.049-0.065-0.066-0.139,0-0.188
	c0.037-0.03,0.103-0.023,0.167-0.033c0.024-0.143,0.009-0.22,0.037-0.389c0.099-0.671,0.475-1.099,1.032-1.44
	c0.227-0.137,0.492-0.234,0.77-0.237C2.463,1.576,2.567,1.584,2.67,1.588"/>
<path fill="#751A13" d="M8.53,4.263c0.396-1.037-0.436-2.25-1.266-2.438C7.267,1.837,7.271,1.85,7.269,1.861
	C7.267,1.884,7.261,1.913,7.251,1.943C7.218,2.04,7.155,2.048,7.11,2.037C7.084,2.032,7.06,2.016,7.038,1.998
	C6.915,1.884,6.675,1.646,6.712,1.543C6.759,1.421,7.042,1.348,7.204,1.3c0.078-0.024,0.15-0.013,0.176,0.066
	c0.014,0.045-0.016,0.103-0.027,0.167c0.127,0.073,0.205,0.083,0.354,0.167c0.593,0.328,0.861,0.832,0.99,1.472
	c0.05,0.261,0.048,0.543-0.049,0.804C8.615,4.075,8.569,4.169,8.53,4.263"/>
<path fill="#751A13" d="M5.597,1.095c0,0.016,0,0.032-0.002,0.046c0,0.017-0.002,0.031-0.004,0.046
	C5.589,1.21,5.586,1.232,5.582,1.255C5.579,1.28,5.571,1.303,5.563,1.326c-0.01,0.046-0.024,0.091-0.043,0.132
	c-0.002,0.007-0.006,0.013-0.008,0.02c-0.012,0.02-0.022,0.041-0.033,0.06C5.478,1.545,5.474,1.55,5.47,1.556
	C5.426,1.627,5.375,1.693,5.315,1.75C5.31,1.756,5.304,1.761,5.299,1.766c-0.011,0.009-0.022,0.019-0.03,0.027
	C5.261,1.798,5.253,1.804,5.246,1.809C5.231,1.822,5.217,1.833,5.199,1.843C5.196,1.845,5.194,1.846,5.192,1.848
	C5.172,1.863,5.149,1.877,5.126,1.889C5.105,1.9,5.084,1.911,5.064,1.919c0,0.001-0.002,0.001-0.003,0.001
	C5.019,1.941,4.973,1.957,4.93,1.97C4.92,1.972,4.911,1.973,4.899,1.977c-0.044,0.01-0.093,0.017-0.14,0.021
	C4.744,2,4.728,2,4.714,2C4.706,2,4.698,2.001,4.689,2.001C4.681,2.001,4.674,2,4.666,2C4.651,2,4.636,2,4.62,1.998
	c-0.049-0.003-0.096-0.01-0.139-0.021C4.471,1.973,4.46,1.972,4.45,1.97C4.406,1.957,4.361,1.941,4.321,1.921
	c-0.001,0-0.003,0-0.007-0.001C4.296,1.911,4.277,1.902,4.26,1.893C4.234,1.879,4.21,1.865,4.187,1.849
	C4.185,1.846,4.184,1.845,4.18,1.843c-0.017-0.01-0.033-0.021-0.047-0.034C4.126,1.804,4.119,1.798,4.112,1.793
	c-0.01-0.008-0.021-0.018-0.031-0.027c-0.01-0.01-0.021-0.019-0.031-0.03c-0.054-0.053-0.1-0.114-0.14-0.18
	C3.907,1.55,3.903,1.545,3.9,1.538c-0.011-0.02-0.021-0.041-0.033-0.061C3.865,1.471,3.861,1.465,3.86,1.458
	C3.841,1.417,3.827,1.372,3.814,1.326C3.808,1.303,3.802,1.28,3.799,1.255C3.793,1.232,3.79,1.21,3.789,1.187
	c-0.002-0.016-0.003-0.03-0.003-0.046C3.783,1.127,3.783,1.11,3.783,1.095c0-0.015,0.003-0.032,0.003-0.046
	c0-0.009,0.005-0.02,0.005-0.028c0-0.005-0.002-0.012-0.002-0.019c0-0.005,0-0.01,0-0.017c0.003-0.016,0.007-0.034,0.009-0.05
	C3.803,0.91,3.807,0.886,3.814,0.864C3.827,0.816,3.841,0.772,3.86,0.731c0.001-0.003,0.001-0.007,0.003-0.009
	c0.002-0.003,0.002-0.007,0.003-0.01C3.879,0.692,3.889,0.671,3.9,0.651c0.003-0.007,0.007-0.012,0.01-0.017
	c0.043-0.071,0.094-0.138,0.153-0.195C4.07,0.434,4.075,0.429,4.08,0.423c0.011-0.008,0.021-0.018,0.032-0.027
	c0.007-0.005,0.014-0.01,0.021-0.016c0.014-0.013,0.03-0.023,0.047-0.034c0.004-0.002,0.005-0.003,0.007-0.005
	C4.227,0.314,4.27,0.289,4.314,0.27c0.003-0.002,0.005-0.002,0.007-0.002c0.04-0.02,0.085-0.036,0.129-0.048
	c0.01-0.002,0.021-0.005,0.031-0.007c0.043-0.01,0.09-0.017,0.139-0.021C4.636,0.19,4.651,0.19,4.666,0.19
	c0.008,0,0.016-0.002,0.024-0.002c0.009,0,0.016,0.002,0.024,0.002c0.014,0,0.03,0,0.045,0.001c0.047,0.004,0.096,0.011,0.139,0.021
	C4.911,0.214,4.919,0.218,4.93,0.22c0.043,0.013,0.089,0.028,0.131,0.048c0.001,0,0.003,0,0.003,0.002
	c0.045,0.019,0.087,0.044,0.128,0.071c0.002,0.002,0.004,0.003,0.007,0.005c0.018,0.01,0.032,0.021,0.047,0.034
	c0.007,0.005,0.015,0.01,0.021,0.016c0.01,0.009,0.021,0.019,0.031,0.027C5.304,0.428,5.31,0.434,5.313,0.438
	c0.062,0.058,0.111,0.124,0.154,0.195c0.004,0.005,0.008,0.01,0.012,0.017C5.49,0.67,5.5,0.691,5.513,0.711
	c0.002,0.008,0.006,0.013,0.008,0.02c0.02,0.041,0.033,0.085,0.045,0.132C5.573,0.885,5.58,0.909,5.583,0.934
	C5.587,0.955,5.59,0.978,5.592,1.001c0.003,0.008,0.003,0.015,0.003,0.022c0.002,0.009,0.002,0.016,0.002,0.025
	C5.597,1.063,5.597,1.079,5.597,1.095"/>
<path fill="#751A13" d="M6.188,2.868v0.939c0,0.018,0.002,0.021-0.02,0.021H3.211c-0.021,0-0.037-0.003-0.037-0.021V2.868
	c0-0.014,0-0.03,0-0.045c0.01-0.223,0.099-0.424,0.24-0.578c0.003-0.003,0.007-0.01,0.014-0.014c0.068-0.073,0.151-0.132,0.24-0.178
	c0.005-0.003,0.01-0.005,0.016-0.009c0.024-0.01,0.052-0.021,0.077-0.03c0.005-0.002,0.012-0.003,0.017-0.007
	C3.802,2,3.825,1.993,3.85,1.988c0.029,0.028,0.061,0.055,0.09,0.08c0.083,0.064,0.172,0.117,0.266,0.159
	C4.224,2.234,4.243,2.243,4.26,2.25c0.07,0.026,0.141,0.047,0.212,0.057C4.543,2.323,4.617,2.33,4.689,2.33
	c0.084,0,0.166-0.009,0.246-0.026c0.01-0.003,0.021-0.007,0.03-0.007H5.01h0.002c0.037,0,0.076-0.029,0.115-0.045
	c0.016-0.005,0.031-0.017,0.045-0.024C5.245,2.194,5.313,2.15,5.381,2.1c0.007,0,0.015-0.005,0.021-0.011
	c0.043-0.031,0.084-0.065,0.123-0.103C5.897,2.073,6.17,2.414,6.19,2.822C6.192,2.838,6.188,2.854,6.188,2.868"/>
<path fill="#751A13" d="M3.208,4.677c0,0.017,0,0.031-0.002,0.047c0,0.016-0.001,0.029-0.003,0.047
	C3.2,4.792,3.197,4.816,3.193,4.837C3.19,4.861,3.185,4.886,3.178,4.91C3.164,4.956,3.15,5,3.131,5.041
	C3.129,5.048,3.125,5.053,3.124,5.06C3.113,5.081,3.103,5.102,3.091,5.121C3.087,5.127,3.084,5.133,3.08,5.14
	C3.039,5.209,2.986,5.274,2.927,5.333C2.92,5.338,2.915,5.345,2.91,5.349c-0.011,0.01-0.019,0.018-0.03,0.027
	C2.872,5.38,2.865,5.388,2.857,5.394c-0.013,0.01-0.029,0.021-0.044,0.031C2.809,5.429,2.807,5.429,2.806,5.433
	C2.783,5.446,2.76,5.46,2.739,5.472c-0.022,0.012-0.043,0.021-0.064,0.03c0,0.003-0.001,0.003-0.003,0.003
	C2.63,5.522,2.586,5.54,2.541,5.552C2.53,5.554,2.522,5.558,2.511,5.56c-0.045,0.01-0.094,0.02-0.139,0.022
	c-0.016,0-0.033,0-0.047,0c-0.009,0-0.016,0.003-0.024,0.003c-0.007,0-0.014-0.003-0.024-0.003c-0.014,0-0.029,0-0.045,0
	C2.183,5.578,2.137,5.569,2.092,5.56c-0.011-0.002-0.02-0.006-0.03-0.008c-0.045-0.012-0.09-0.029-0.13-0.047
	c-0.002,0-0.003,0-0.005-0.003C1.908,5.493,1.889,5.483,1.871,5.476C1.847,5.46,1.821,5.446,1.798,5.433
	C1.796,5.429,1.794,5.429,1.791,5.425c-0.016-0.01-0.033-0.021-0.047-0.031C1.737,5.388,1.73,5.38,1.723,5.376
	c-0.01-0.01-0.019-0.018-0.029-0.027c-0.012-0.011-0.023-0.02-0.033-0.029C1.606,5.265,1.562,5.206,1.521,5.14
	c-0.003-0.007-0.006-0.013-0.01-0.019C1.5,5.102,1.49,5.081,1.479,5.06C1.478,5.053,1.475,5.048,1.473,5.041
	C1.452,5,1.438,4.956,1.426,4.91C1.419,4.886,1.414,4.861,1.41,4.837C1.407,4.816,1.403,4.792,1.401,4.771
	C1.399,4.753,1.398,4.74,1.398,4.724c-0.002-0.016-0.002-0.03-0.002-0.047c0-0.016,0-0.032,0-0.045c0-0.01,0.002-0.021,0.002-0.03
	c0-0.005,0.001-0.012,0.001-0.017s0.002-0.011,0.002-0.02C1.405,4.552,1.407,4.533,1.41,4.517c0.003-0.024,0.009-0.049,0.016-0.071
	c0.01-0.047,0.026-0.091,0.047-0.131c0-0.005,0.002-0.008,0.003-0.01c0.002-0.003,0.002-0.007,0.003-0.01
	C1.49,4.273,1.5,4.252,1.511,4.233c0.004-0.007,0.007-0.012,0.011-0.018c0.043-0.071,0.096-0.137,0.153-0.193
	c0.007-0.007,0.014-0.012,0.02-0.018c0.01-0.009,0.019-0.017,0.029-0.028c0.007-0.003,0.014-0.01,0.021-0.014
	c0.013-0.012,0.03-0.023,0.046-0.033c0.003-0.001,0.005-0.003,0.007-0.005C1.84,3.897,1.881,3.873,1.927,3.853
	C1.929,3.851,1.93,3.851,1.932,3.851c0.04-0.019,0.085-0.037,0.13-0.047C2.073,3.8,2.082,3.8,2.092,3.797
	c0.045-0.012,0.09-0.02,0.139-0.023c0.016-0.001,0.031-0.001,0.045-0.001c0.011,0,0.018-0.002,0.024-0.002
	c0.009,0,0.016,0.002,0.024,0.002c0.014,0,0.031,0,0.047,0.001C2.416,3.777,2.465,3.785,2.51,3.797C2.522,3.8,2.53,3.8,2.541,3.804
	c0.045,0.01,0.089,0.028,0.13,0.047c0.002,0,0.003,0,0.003,0.002c0.046,0.02,0.09,0.044,0.132,0.071
	c0.001,0.001,0.003,0.003,0.007,0.005c0.015,0.01,0.031,0.021,0.044,0.035c0.007,0.003,0.014,0.01,0.023,0.014
	c0.01,0.011,0.019,0.019,0.029,0.028c0.006,0.005,0.011,0.01,0.016,0.017C2.986,4.079,3.039,4.145,3.08,4.216
	c0.004,0.005,0.007,0.011,0.011,0.018c0.012,0.019,0.022,0.04,0.033,0.061c0.001,0.007,0.005,0.012,0.007,0.021
	c0.019,0.04,0.033,0.083,0.047,0.131c0.007,0.021,0.012,0.046,0.015,0.07S3.2,4.562,3.202,4.585
	c0.002,0.007,0.002,0.014,0.002,0.021c0.001,0.009,0.001,0.016,0.001,0.026C3.208,4.646,3.208,4.661,3.208,4.677"/>
<path fill="#751A13" d="M3.816,6.452V7.39c0,0.018-0.018,0.02-0.035,0.02H0.822c-0.019,0-0.043-0.002-0.043-0.02V6.452
	c0-0.016,0.004-0.032,0.004-0.047c0.011-0.225,0.102-0.426,0.242-0.578c0.003-0.004,0.009-0.01,0.012-0.014
	c0.07-0.072,0.151-0.133,0.242-0.176c0.005-0.004,0.01-0.008,0.016-0.012c0.026-0.012,0.05-0.021,0.076-0.029
	c0.005-0.002,0.014-0.004,0.02-0.007c0.022-0.009,0.045-0.017,0.071-0.021C1.49,5.601,1.52,5.625,1.553,5.651
	c0.082,0.063,0.17,0.115,0.265,0.156c0.019,0.01,0.036,0.018,0.054,0.023c0.07,0.027,0.141,0.046,0.212,0.061
	c0.071,0.014,0.144,0.021,0.217,0.021c0.083,0,0.166-0.009,0.246-0.026c0.01,0,0.021-0.008,0.031-0.008h0.043
	c0.04,0,0.078-0.029,0.118-0.044c0.014-0.007,0.028-0.021,0.043-0.026c0.073-0.033,0.143-0.076,0.209-0.127
	c0.007,0,0.014-0.004,0.021-0.01c0.043-0.033,0.085-0.064,0.124-0.104c0.372,0.088,0.656,0.429,0.675,0.836
	C3.813,6.419,3.816,6.437,3.816,6.452"/>
<path fill="#751A13" d="M8.354,4.809c0,0.018,0,0.033-0.002,0.047c0,0.016,0,0.029-0.002,0.047C8.349,4.926,8.345,4.948,8.342,4.969
	C8.338,4.996,8.333,5.018,8.326,5.042c-0.015,0.045-0.028,0.09-0.048,0.132C8.276,5.183,8.272,5.187,8.272,5.192
	c-0.01,0.021-0.021,0.041-0.033,0.063c-0.004,0.008-0.008,0.01-0.012,0.018c-0.041,0.07-0.093,0.135-0.152,0.195
	c-0.008,0.004-0.012,0.01-0.018,0.012c-0.01,0.012-0.019,0.019-0.029,0.029C8.021,5.515,8.013,5.521,8.006,5.524
	C7.99,5.536,7.978,5.547,7.961,5.558C7.957,5.562,7.955,5.562,7.954,5.563C7.931,5.578,7.908,5.591,7.888,5.604
	C7.865,5.616,7.845,5.627,7.823,5.634c0,0.004-0.002,0.004-0.004,0.004C7.778,5.655,7.733,5.672,7.688,5.685
	C7.679,5.687,7.67,5.688,7.659,5.692C7.614,5.703,7.565,5.711,7.521,5.714c-0.017,0-0.033,0-0.047,0
	c-0.01,0-0.017,0.004-0.024,0.004c-0.007,0-0.015-0.004-0.024-0.004c-0.014,0-0.029,0-0.045,0C7.331,5.711,7.285,5.703,7.24,5.692
	C7.229,5.688,7.222,5.687,7.211,5.685C7.165,5.672,7.12,5.655,7.08,5.638c-0.002,0-0.003,0-0.005-0.004
	C7.058,5.627,7.037,5.616,7.021,5.606C6.995,5.595,6.97,5.58,6.946,5.563C6.944,5.562,6.942,5.562,6.938,5.558
	c-0.015-0.011-0.03-0.021-0.045-0.033c-0.008-0.004-0.015-0.01-0.022-0.016C6.86,5.498,6.853,5.491,6.842,5.479
	C6.83,5.472,6.819,5.462,6.81,5.451c-0.055-0.054-0.1-0.113-0.14-0.179c-0.004-0.008-0.007-0.01-0.011-0.018
	C6.647,5.233,6.64,5.213,6.628,5.192c-0.002-0.006-0.005-0.01-0.007-0.018C6.601,5.133,6.586,5.088,6.574,5.042
	C6.567,5.018,6.562,4.996,6.56,4.969C6.556,4.948,6.552,4.926,6.55,4.903C6.548,4.886,6.546,4.872,6.546,4.856
	c-0.002-0.014-0.002-0.03-0.002-0.047c0-0.016-0.007-0.031-0.005-0.045c0-0.011-0.007-0.021-0.007-0.028
	c0-0.007,0.009-0.014,0.011-0.02c0-0.005,0.003-0.01,0.005-0.017c0.002-0.016,0.006-0.033,0.01-0.05
	C6.56,4.625,6.567,4.601,6.571,4.58c0.013-0.049,0.029-0.093,0.048-0.133c0.002-0.003,0.004-0.007,0.005-0.01
	C6.626,4.434,6.626,4.43,6.628,4.426c0.012-0.02,0.021-0.042,0.031-0.06C6.663,4.36,6.666,4.354,6.67,4.348
	c0.043-0.071,0.097-0.137,0.153-0.193c0.007-0.007,0.014-0.01,0.019-0.017C6.853,4.131,6.862,4.12,6.871,4.112
	c0.008-0.005,0.015-0.01,0.021-0.016c0.017-0.014,0.031-0.024,0.047-0.035c0.004,0,0.006-0.003,0.008-0.003
	C6.987,4.03,7.03,4.005,7.075,3.984c0.002,0,0.003,0,0.005,0c0.04-0.021,0.085-0.036,0.131-0.048
	C7.222,3.933,7.229,3.933,7.24,3.929c0.045-0.01,0.091-0.017,0.14-0.021c0.016-0.004,0.031-0.004,0.045-0.004
	c0.012,0,0.018-0.001,0.024-0.001c0.009,0,0.016,0.001,0.024,0.001c0.014,0,0.03,0,0.047,0.004c0.045,0.003,0.094,0.01,0.139,0.021
	c0.011,0.004,0.02,0.004,0.027,0.007c0.047,0.012,0.092,0.028,0.133,0.048c0.002,0,0.004,0,0.004,0
	C7.868,4.005,7.912,4.03,7.954,4.058c0.001,0,0.003,0.003,0.007,0.003C7.978,4.072,7.99,4.082,8.006,4.096
	c0.007,0.005,0.017,0.011,0.022,0.016c0.011,0.009,0.02,0.02,0.029,0.026c0.006,0.007,0.01,0.01,0.016,0.018
	c0.062,0.056,0.113,0.122,0.154,0.193C8.231,4.354,8.235,4.36,8.239,4.367c0.012,0.019,0.021,0.04,0.033,0.06
	c0,0.008,0.004,0.014,0.006,0.021c0.02,0.04,0.033,0.083,0.048,0.132C8.333,4.6,8.338,4.624,8.342,4.649
	c0.003,0.024,0.007,0.045,0.009,0.067c0.002,0.01,0.002,0.017,0.002,0.024c0.002,0.007,0.002,0.014,0.002,0.024
	C8.354,4.778,8.354,4.793,8.354,4.809"/>
<path fill="#751A13" d="M8.952,6.584v0.938c0,0.02-0.006,0.037-0.021,0.037H5.972c-0.021,0-0.031-0.019-0.031-0.037V6.584
	c0-0.015-0.002-0.03-0.002-0.045c0.012-0.226,0.099-0.427,0.24-0.58c0.002-0.003,0.006-0.009,0.01-0.013
	c0.068-0.072,0.15-0.133,0.24-0.178c0.004-0.002,0.01-0.006,0.016-0.01C6.47,5.748,6.497,5.737,6.521,5.729
	c0.006-0.002,0.015-0.004,0.02-0.008c0.021-0.007,0.045-0.016,0.07-0.02c0.029,0.027,0.059,0.057,0.092,0.08
	c0.082,0.063,0.17,0.119,0.265,0.158c0.017,0.01,0.035,0.018,0.054,0.024c0.068,0.026,0.14,0.048,0.211,0.058
	c0.07,0.016,0.145,0.021,0.218,0.021c0.083,0,0.165-0.016,0.245-0.031c0.011-0.002,0.021-0.011,0.031-0.011h0.045
	c0.039,0,0.078-0.024,0.117-0.042c0.014-0.005,0.027-0.009,0.043-0.016C8.004,5.912,8.073,5.878,8.14,5.829
	c0.008,0,0.014-0.016,0.022-0.02c0.042-0.033,0.084-0.068,0.122-0.106c0.371,0.089,0.65,0.429,0.67,0.836
	C8.954,6.554,8.952,6.569,8.952,6.584"/>
</svg>
