<?xml version="1.0" encoding="utf-8"?>
<!-- Generator: Adobe Illustrator 16.0.0, SVG Export Plug-In . SVG Version: 6.00 Build 0)  -->
<!DOCTYPE svg PUBLIC "-//W3C//DTD SVG 1.1//EN" "http://www.w3.org/Graphics/SVG/1.1/DTD/svg11.dtd">
<svg version="1.1" id="Layer_1" xmlns="http://www.w3.org/2000/svg" xmlns:xlink="http://www.w3.org/1999/xlink" x="0px" y="0px"
	 width="9.295px" height="9.295px" viewBox="4.171 4.79 9.295 9.295" enable-background="new 4.171 4.79 9.295 9.295"
	 xml:space="preserve">
<g opacity="0.15">
	<g>
		<defs>
			<rect id="SVGID_1_" x="4.171" y="4.79" width="9.295" height="9.295"/>
		</defs>
		<clipPath id="SVGID_2_">
			<use xlink:href="#SVGID_1_"  overflow="visible"/>
		</clipPath>
		<path clip-path="url(#SVGID_2_)" fill="#FFFFFF" d="M11.52,14.085H6.117c-1.074,0-1.946-0.871-1.946-1.946V6.736
			c0-1.075,0.872-1.946,1.946-1.946h5.402c1.075,0,1.946,0.871,1.946,1.946v5.403C13.466,13.214,12.595,14.085,11.52,14.085"/>
	</g>
</g>
<path fill="#FFFFFF" d="M9.744,7.976H6.701c-0.154,0-0.277-0.124-0.277-0.275s0.123-0.274,0.277-0.274h3.043
	c0.153,0,0.277,0.123,0.277,0.274S9.897,7.976,9.744,7.976"/>
<path fill="#FFFFFF" d="M10.936,9.711H6.7c-0.153,0-0.277-0.124-0.277-0.275c0-0.151,0.124-0.274,0.277-0.274h4.235
	c0.152,0,0.276,0.123,0.276,0.274C11.212,9.587,11.088,9.711,10.936,9.711"/>
<path fill="#FFFFFF" d="M8.223,11.446H6.701c-0.154,0-0.277-0.124-0.277-0.275s0.123-0.274,0.277-0.274h1.521
	c0.152,0,0.277,0.123,0.277,0.274S8.375,11.446,8.223,11.446"/>
</svg>
