<?xml version="1.0" encoding="utf-8"?>
<!-- Generator: Adobe Illustrator 16.0.0, SVG Export Plug-In . SVG Version: 6.00 Build 0)  -->
<!DOCTYPE svg PUBLIC "-//W3C//DTD SVG 1.1//EN" "http://www.w3.org/Graphics/SVG/1.1/DTD/svg11.dtd">
<svg version="1.1" id="Layer_1" xmlns="http://www.w3.org/2000/svg" xmlns:xlink="http://www.w3.org/1999/xlink" x="0px" y="0px"
	 width="9.295px" height="9.295px" viewBox="0 0 9.295 9.295" enable-background="new 0 0 9.295 9.295" xml:space="preserve">
<g>
	<path fill-rule="evenodd" clip-rule="evenodd" fill="#C1C6DE" d="M6.896,7.323c0,0.229-0.003,0.463,0.001,0.693
		c0,0.063-0.022,0.092-0.077,0.118C6.476,8.289,6.112,8.381,5.739,8.438C5.389,8.49,5.033,8.514,4.679,8.504
		C4.437,8.493,4.195,8.467,3.954,8.438C3.58,8.398,3.215,8.313,2.853,8.21C2.761,8.184,2.667,8.16,2.579,8.127
		C2.555,8.118,2.525,8.079,2.525,8.053c-0.004-0.41-0.008-0.821,0-1.235C2.53,6.546,2.577,6.28,2.706,6.034
		c0.179-0.342,0.438-0.597,0.79-0.756C3.705,5.181,3.926,5.13,4.16,5.131C4.543,5.134,4.928,5.13,5.311,5.134
		c0.35,0.004,0.663,0.121,0.941,0.332c0.33,0.252,0.533,0.585,0.618,0.988C6.894,6.569,6.893,6.691,6.895,6.81
		C6.898,6.979,6.896,7.152,6.896,7.323z"/>
	<path fill-rule="evenodd" clip-rule="evenodd" fill="#C1C6DE" d="M3.573,4.88C3.449,4.938,3.328,4.987,3.214,5.05
		c-0.3,0.162-0.538,0.392-0.719,0.682c-0.144,0.229-0.24,0.477-0.272,0.744C2.2,6.668,2.207,6.864,2.202,7.061
		C2.2,7.163,2.194,7.166,2.092,7.15C1.954,7.132,1.813,7.127,1.675,7.105c-0.218-0.037-0.437-0.07-0.652-0.12
		C0.784,6.93,0.549,6.859,0.313,6.799C0.272,6.789,0.262,6.77,0.262,6.73C0.263,6.254,0.243,5.775,0.27,5.3
		C0.287,5,0.401,4.715,0.588,4.467C0.836,4.14,1.161,3.928,1.561,3.838c0.108-0.025,0.222-0.035,0.333-0.037
		c0.37-0.005,0.739-0.002,1.109-0.002c0.108,0,0.103,0.002,0.114,0.107c0.033,0.3,0.137,0.571,0.322,0.811
		C3.481,4.771,3.527,4.823,3.573,4.88z"/>
	<path fill-rule="evenodd" clip-rule="evenodd" fill="#C1C6DE" d="M5.862,4.873c0.034-0.042,0.077-0.089,0.116-0.14
		C6.178,4.478,6.295,4.19,6.313,3.865c0.002-0.047,0.016-0.066,0.065-0.066C6.731,3.8,7.085,3.786,7.437,3.803
		c0.66,0.03,1.142,0.349,1.436,0.938c0.069,0.137,0.107,0.294,0.137,0.446c0.026,0.14,0.027,0.285,0.028,0.429
		C9.041,5.972,9.039,6.327,9.04,6.682c0,0.053-0.011,0.084-0.063,0.109c-0.29,0.137-0.593,0.229-0.906,0.28
		c-0.23,0.037-0.462,0.058-0.693,0.087c-0.007,0-0.014,0-0.021,0c-0.131,0.01-0.131,0.01-0.131-0.126
		c0-0.253,0.012-0.509-0.056-0.759C7.033,5.787,6.764,5.395,6.333,5.122C6.186,5.029,6.023,4.957,5.862,4.873z"/>
	<path fill-rule="evenodd" clip-rule="evenodd" fill="#C1C6DE" d="M4.713,2.465c0.7-0.001,1.277,0.562,1.278,1.272
		c0.002,0.704-0.554,1.281-1.276,1.28C3.994,5.015,3.441,4.454,3.439,3.741C3.437,3.017,4.025,2.465,4.713,2.465z"/>
	<path fill-rule="evenodd" clip-rule="evenodd" fill="#C1C6DE" d="M2.45,1.128C3.081,1.14,3.596,1.571,3.715,2.204
		c0.012,0.062,0.01,0.126,0.017,0.188c0.006,0.055-0.014,0.092-0.056,0.126c-0.278,0.234-0.458,0.53-0.528,0.886
		C3.127,3.516,3.044,3.537,2.973,3.572C2.81,3.651,2.631,3.689,2.45,3.687C2.111,3.681,1.813,3.563,1.565,3.323
		C1.378,3.14,1.255,2.92,1.203,2.664C1.14,2.344,1.189,2.04,1.357,1.76c0.2-0.332,0.496-0.533,0.877-0.608
		c0.014-0.002,0.027-0.005,0.041-0.006C2.333,1.14,2.392,1.134,2.45,1.128z"/>
	<path fill-rule="evenodd" clip-rule="evenodd" fill="#C1C6DE" d="M6.874,3.69C6.688,3.678,6.516,3.659,6.358,3.582
		C6.331,3.569,6.307,3.528,6.302,3.496C6.237,3.079,6.033,2.745,5.709,2.48C5.702,2.475,5.695,2.465,5.688,2.463
		c-0.132-0.049-0.119-0.155-0.099-0.26c0.101-0.548,0.51-0.958,1.054-1.055c0.529-0.095,1.108,0.199,1.341,0.685
		c0.241,0.503,0.18,0.978-0.171,1.407c-0.211,0.257-0.494,0.4-0.827,0.437C6.943,3.681,6.902,3.687,6.874,3.69z"/>
</g>
</svg>
