<?xml version="1.0" encoding="utf-8"?>
<!-- Generator: Adobe Illustrator 16.0.0, SVG Export Plug-In . SVG Version: 6.00 Build 0)  -->
<!DOCTYPE svg PUBLIC "-//W3C//DTD SVG 1.1//EN" "http://www.w3.org/Graphics/SVG/1.1/DTD/svg11.dtd">
<svg version="1.1" id="Layer_1" xmlns="http://www.w3.org/2000/svg" xmlns:xlink="http://www.w3.org/1999/xlink" x="0px" y="0px"
	 width="9.295px" height="9.295px" viewBox="0 0 9.295 9.295" enable-background="new 0 0 9.295 9.295" xml:space="preserve">
<path fill="#751A13" d="M6.106,4.45c1.403,0,2.131,1.225,2.565,2.567L9,8.071c0.063,0.191-0.158,0.361-0.353,0.361H7.884
	C7.97,8.284,7.991,8.124,7.938,7.954L7.597,6.89C7.286,5.94,6.819,4.973,6.03,4.45H6.106z M3.198,4.45
	c1.3,0,2.023,1.044,2.461,2.268L5.671,6.75l0.008,0.011v0.021L5.69,6.813L5.7,6.825v0.021l0.012,0.031l0.012,0.01v0.033l0.01,0.03
	h0.011v0.032l0.01,0.031l0.343,1.055v0.012l0.012,0.01c0.01,0.053,0,0.098-0.023,0.148h-0.01L5.978,8.433H5.743H3.56H0.643
	c-0.191,0-0.404-0.17-0.352-0.361l0.341-1.055C1.058,5.675,1.781,4.45,3.198,4.45 M6.106,1.384c0.744,0,1.352,0.605,1.352,1.363
	c0,0.746-0.607,1.352-1.352,1.352c-0.107,0-0.201-0.01-0.299-0.031c0.371-0.321,0.606-0.8,0.606-1.321
	c0-0.532-0.235-1.001-0.606-1.333C5.905,1.394,5.999,1.384,6.106,1.384 M4.648,4.45c1.414,0,2.138,1.225,2.566,2.567l0.34,1.055
	c0.053,0.191-0.16,0.361-0.361,0.361H6.435c0.076-0.148,0.099-0.31,0.043-0.479L6.14,6.89C5.841,5.94,5.36,4.973,4.572,4.45H4.648z
	 M4.648,1.384c0.755,0,1.361,0.605,1.361,1.363c0,0.746-0.605,1.352-1.361,1.352c-0.098,0-0.204-0.01-0.3-0.031
	c0.372-0.321,0.607-0.8,0.607-1.321c0-0.532-0.235-1.001-0.607-1.333C4.444,1.394,4.55,1.384,4.648,1.384 M3.198,1.384
	c0.745,0,1.352,0.605,1.352,1.363c0,0.746-0.607,1.352-1.352,1.352c-0.756,0-1.363-0.606-1.363-1.352
	C1.835,1.99,2.442,1.384,3.198,1.384"/>
</svg>
