<?xml version="1.0" encoding="utf-8"?>
<!-- Generator: Adobe Illustrator 16.0.0, SVG Export Plug-In . SVG Version: 6.00 Build 0)  -->
<!DOCTYPE svg PUBLIC "-//W3C//DTD SVG 1.1//EN" "http://www.w3.org/Graphics/SVG/1.1/DTD/svg11.dtd">
<svg version="1.1" id="Layer_1" xmlns="http://www.w3.org/2000/svg" xmlns:xlink="http://www.w3.org/1999/xlink" x="0px" y="0px"
	 width="9.295px" height="9.295px" viewBox="0 0 9.295 9.295" enable-background="new 0 0 9.295 9.295" xml:space="preserve">
<path fill="#FFFFFF" d="M8.616,2.947L8.071,1.993C8,1.872,7.817,1.852,7.696,1.923L7.148,2.238L7.146,2.239
	C6.917,2.004,6.619,1.756,6.301,1.58l0.164-0.613c0.037-0.136-0.044-0.275-0.18-0.313L5.223,0.367
	C5.087,0.329,4.947,0.409,4.91,0.547L4.748,1.155l0.001,0.001c-0.353-0.011-0.667,0.006-1.056,0.13l-0.315-0.55
	c-0.07-0.121-0.239-0.169-0.361-0.099L2.062,1.187c-0.123,0.069-0.11,0.208-0.041,0.33l0.316,0.55l0.001,0.003
	c-0.306,0.268-0.505,0.537-0.68,0.856L1.024,2.773c-0.136-0.037-0.275,0.043-0.312,0.18L0.425,4.015
	c-0.038,0.136,0.042,0.275,0.18,0.313l0.612,0.166l0.004,0.004C1.209,4.853,1.233,5.177,1.356,5.563L0.808,5.88
	c-0.122,0.068-0.14,0.195-0.069,0.316l0.548,0.955c0.07,0.121,0.178,0.154,0.3,0.082l0.549-0.314h0.001
	c0.27,0.307,0.534,0.494,0.852,0.668L2.832,8.212C2.794,8.349,2.876,8.487,3.011,8.524l1.064,0.287
	C4.212,8.847,4.354,8.765,4.39,8.63l0.174-0.613l0.012-0.014c0.353,0.014,0.7-0.023,1.088-0.146l0.314,0.549
	C6.05,8.526,6.145,8.589,6.267,8.519L7.22,7.972c0.121-0.07,0.183-0.223,0.113-0.344L7.019,7.077V7.075
	c0.304-0.268,0.474-0.521,0.647-0.838L8.27,6.405c0.136,0.037,0.275-0.043,0.313-0.182L8.87,5.163
	C8.907,5.026,8.823,4.885,8.688,4.85l-0.613-0.17L8.067,4.67C8.08,4.317,8.049,3.982,7.926,3.594l0.548-0.316
	C8.598,3.208,8.688,3.069,8.616,2.947 M3.402,3.602c0.121-0.156,0.274-0.29,0.456-0.393C4.083,3.079,4.325,3.01,4.569,3
	c0.025-0.001,0.051-0.001,0.078-0.001c0.012,0,0.024,0,0.037,0C4.709,3,4.735,3,4.76,3.002c0.026,0.001,0.051,0.003,0.076,0.006
	C4.848,3.01,4.86,3.012,4.875,3.013c0.048,0.008,0.101,0.017,0.149,0.03c0.014,0.003,0.022,0.006,0.035,0.009
	c0.024,0.008,0.05,0.015,0.074,0.021C5.146,3.079,5.156,3.082,5.17,3.086c0.021,0.008,0.047,0.017,0.071,0.026
	c0.01,0.005,0.021,0.011,0.034,0.016c0.016,0.008,0.031,0.014,0.05,0.021c0.017,0.009,0.037,0.017,0.053,0.026
	C5.4,3.19,5.423,3.201,5.445,3.213c0.03,0.017,0.06,0.036,0.087,0.056c0.015,0.009,0.028,0.019,0.04,0.028
	c0.023,0.015,0.042,0.031,0.063,0.048c0.031,0.023,0.062,0.049,0.09,0.074C5.743,3.438,5.762,3.456,5.78,3.475
	c0.091,0.093,0.172,0.2,0.24,0.319c0.122,0.212,0.188,0.441,0.206,0.673c0.003,0.037,0.006,0.076,0.006,0.115
	c0,0.024-0.003,0.049-0.003,0.076c0,0.025-0.003,0.051-0.007,0.076C6.217,4.797,6.208,4.86,6.193,4.922
	c-0.004,0.023-0.011,0.05-0.017,0.073c-0.01,0.036-0.021,0.073-0.034,0.11c-0.01,0.023-0.018,0.046-0.028,0.072
	C6.111,5.187,6.105,5.2,6.1,5.21C6.09,5.233,6.079,5.257,6.068,5.28c-0.016,0.033-0.034,0.068-0.055,0.1
	C6.002,5.403,5.989,5.425,5.976,5.448C5.842,5.649,5.661,5.825,5.437,5.956C5.244,6.065,5.043,6.13,4.839,6.155
	C4.813,6.157,4.786,6.161,4.761,6.163c-0.076,0.006-0.153,0.006-0.229,0C4.507,6.161,4.481,6.157,4.455,6.155
	c-0.01-0.002-0.023-0.006-0.036-0.006C4.38,6.144,4.343,6.138,4.306,6.128c-0.421-0.09-0.802-0.354-1.034-0.756
	c-0.11-0.193-0.175-0.398-0.199-0.606C3.062,4.678,3.059,4.589,3.063,4.501c0.002-0.03,0.005-0.058,0.008-0.088
	C3.078,4.34,3.092,4.268,3.109,4.198c0.017-0.071,0.04-0.141,0.068-0.209c0.004-0.014,0.011-0.025,0.014-0.036
	c0.009-0.023,0.021-0.048,0.033-0.07C3.235,3.862,3.247,3.837,3.26,3.815c0.024-0.045,0.051-0.087,0.08-0.13
	c0.01-0.014,0.019-0.026,0.028-0.042C3.38,3.629,3.39,3.616,3.402,3.602"/>
</svg>
