<?xml version="1.0" encoding="utf-8"?>
<!-- Generator: Adobe Illustrator 16.0.0, SVG Export Plug-In . SVG Version: 6.00 Build 0)  -->
<!DOCTYPE svg PUBLIC "-//W3C//DTD SVG 1.1//EN" "http://www.w3.org/Graphics/SVG/1.1/DTD/svg11.dtd">
<svg version="1.1" id="Layer_1" xmlns="http://www.w3.org/2000/svg" xmlns:xlink="http://www.w3.org/1999/xlink" x="0px" y="0px"
	 width="30.35px" height="30.111px" viewBox="7.913 14.948 30.35 30.111" enable-background="new 7.913 14.948 30.35 30.111"
	 xml:space="preserve">
<path fill="#A8DD1F" d="M38.263,14.948v30.111c-16.762,0-30.35-13.481-30.35-30.111H38.263z"/>
<path fill="#FFFFFF" d="M18.663,30.296l0.314-0.34c0.15,0.224,0.452,0.34,0.735,0.34c0.32,0,0.487-0.151,0.487-0.372
	c0-0.176-0.113-0.304-0.379-0.359l-0.336-0.076c-0.457-0.1-0.695-0.359-0.695-0.719c0-0.484,0.421-0.856,1.02-0.856
	c0.379,0,0.76,0.148,0.923,0.388l-0.329,0.324c-0.128-0.196-0.382-0.292-0.614-0.292c-0.304,0-0.475,0.16-0.475,0.376
	c0,0.196,0.137,0.3,0.374,0.356l0.337,0.072c0.44,0.095,0.699,0.355,0.699,0.731c0,0.479-0.417,0.849-1.053,0.849
	C19.273,30.717,18.844,30.565,18.663,30.296"/>
<path fill="#FFFFFF" d="M21.149,28.302c0-0.16,0.123-0.285,0.29-0.285c0.165,0,0.29,0.125,0.29,0.285
	c0,0.159-0.125,0.283-0.29,0.283C21.272,28.585,21.149,28.461,21.149,28.302 M21.201,28.889h0.159c0.153,0,0.232-0.004,0.315-0.032
	v1.819h-0.475V28.889z"/>
<path fill="#FFFFFF" d="M22.237,31.248l0.316-0.257c0.106,0.152,0.25,0.228,0.489,0.228c0.379,0,0.544-0.18,0.544-0.543v-0.355
	c-0.099,0.229-0.324,0.395-0.606,0.395c-0.449,0-0.856-0.422-0.856-0.935c0-0.508,0.407-0.931,0.856-0.931
	c0.277,0,0.508,0.168,0.606,0.395v-0.356h0.159c0.169,0,0.24-0.007,0.314-0.032v1.748c0,0.639-0.396,0.979-1.021,0.979
	C22.694,31.584,22.395,31.48,22.237,31.248 M23.602,29.781c0-0.315-0.238-0.54-0.492-0.54c-0.278,0-0.497,0.225-0.497,0.54
	c0,0.32,0.219,0.544,0.497,0.544C23.363,30.324,23.602,30.101,23.602,29.781"/>
<path fill="#FFFFFF" d="M24.65,28.889h0.159c0.174,0,0.24-0.008,0.315-0.032v0.364c0.115-0.24,0.361-0.372,0.656-0.372
	c0.383,0,0.62,0.22,0.62,0.652v1.175h-0.474v-1.083c0-0.248-0.104-0.34-0.313-0.34c-0.296,0-0.49,0.192-0.49,0.522v0.9H24.65V28.889
	z"/>
<path fill="#FFFFFF" d="M27.916,29.584v-1.631h0.521v1.655c0,0.437,0.219,0.672,0.588,0.672c0.371,0,0.591-0.231,0.591-0.672v-1.655
	h0.52v1.631c0,0.721-0.419,1.131-1.11,1.131C28.335,30.715,27.916,30.305,27.916,29.584"/>
<path fill="#FFFFFF" d="M30.755,28.888h0.16c0.169,0,0.239-0.007,0.313-0.032v0.388c0.102-0.227,0.324-0.395,0.604-0.395
	c0.451,0,0.859,0.423,0.859,0.931c0,0.513-0.408,0.935-0.859,0.935c-0.28,0-0.503-0.166-0.604-0.395v1.223h-0.474V28.888z
	 M32.206,29.781c0-0.315-0.224-0.54-0.498-0.54c-0.253,0-0.491,0.225-0.491,0.54c0,0.32,0.238,0.544,0.491,0.544
	C31.982,30.324,32.206,30.101,32.206,29.781"/>
</svg>
