<?xml version="1.0" encoding="utf-8"?>
<!-- Generator: Adobe Illustrator 16.0.0, SVG Export Plug-In . SVG Version: 6.00 Build 0)  -->
<!DOCTYPE svg PUBLIC "-//W3C//DTD SVG 1.1//EN" "http://www.w3.org/Graphics/SVG/1.1/DTD/svg11.dtd">
<svg version="1.1" id="Layer_1" xmlns="http://www.w3.org/2000/svg" xmlns:xlink="http://www.w3.org/1999/xlink" x="0px" y="0px"
	 width="30.35px" height="30.111px" viewBox="7.913 14.948 30.35 30.111" enable-background="new 7.913 14.948 30.35 30.111"
	 xml:space="preserve">
<path fill="#A8DD1F" d="M38.263,14.948v30.111c-16.762,0-30.35-13.481-30.35-30.111H38.263z"/>
<path fill="#FFFFFF" d="M18.554,30.371l0.346-0.377c0.166,0.248,0.498,0.377,0.81,0.377c0.352,0,0.537-0.168,0.537-0.414
	c0-0.193-0.125-0.336-0.417-0.397l-0.371-0.085c-0.503-0.111-0.762-0.399-0.762-0.798c0-0.536,0.461-0.949,1.118-0.949
	c0.415,0,0.836,0.165,1.017,0.431l-0.362,0.359c-0.142-0.218-0.421-0.324-0.678-0.324c-0.333,0-0.521,0.177-0.521,0.417
	c0,0.217,0.151,0.332,0.412,0.394l0.371,0.08c0.485,0.106,0.77,0.395,0.77,0.812c0,0.532-0.459,0.939-1.157,0.939
	C19.225,30.836,18.753,30.668,18.554,30.371"/>
<path fill="#FFFFFF" d="M21.289,28.159c0-0.178,0.136-0.316,0.319-0.316c0.183,0,0.319,0.138,0.319,0.316
	c0,0.177-0.137,0.314-0.319,0.314C21.425,28.473,21.289,28.336,21.289,28.159 M21.347,28.81h0.175c0.169,0,0.255-0.005,0.35-0.035
	v2.017h-0.524V28.81z"/>
<path fill="#FFFFFF" d="M22.486,31.426l0.349-0.284c0.117,0.169,0.272,0.253,0.538,0.253c0.417,0,0.599-0.199,0.599-0.604v-0.395
	c-0.108,0.254-0.356,0.439-0.668,0.439c-0.494,0-0.941-0.469-0.941-1.037c0-0.563,0.447-1.033,0.941-1.033
	c0.307,0,0.56,0.186,0.668,0.439V28.81h0.176c0.186,0,0.263-0.008,0.346-0.035v1.937c0,0.71-0.434,1.086-1.124,1.086
	C22.99,31.798,22.659,31.683,22.486,31.426 M23.985,29.799c0-0.35-0.26-0.598-0.539-0.598c-0.306,0-0.547,0.249-0.547,0.598
	c0,0.355,0.241,0.604,0.547,0.604C23.726,30.403,23.985,30.155,23.985,29.799"/>
<path fill="#FFFFFF" d="M25.143,28.81h0.175c0.19,0,0.264-0.009,0.348-0.035v0.403c0.126-0.266,0.397-0.412,0.722-0.412
	c0.421,0,0.682,0.244,0.682,0.722v1.304h-0.521V29.59c0-0.275-0.114-0.376-0.343-0.376c-0.326,0-0.539,0.213-0.539,0.58v0.998
	h-0.522V28.81z"/>
<rect x="28.744" y="27.773" fill="#FFFFFF" width="0.572" height="3.019"/>
<path fill="#FFFFFF" d="M30.002,28.81h0.175c0.19,0,0.264-0.009,0.348-0.035v0.403c0.127-0.266,0.397-0.412,0.72-0.412
	c0.423,0,0.684,0.244,0.684,0.722v1.304h-0.521V29.59c0-0.275-0.115-0.376-0.344-0.376c-0.326,0-0.539,0.213-0.539,0.58v0.998
	h-0.522V28.81z"/>
</svg>
