<?xml version="1.0" encoding="utf-8"?>
<!-- Generator: Adobe Illustrator 16.0.0, SVG Export Plug-In . SVG Version: 6.00 Build 0)  -->
<!DOCTYPE svg PUBLIC "-//W3C//DTD SVG 1.1//EN" "http://www.w3.org/Graphics/SVG/1.1/DTD/svg11.dtd">
<svg version="1.1" id="Layer_1" xmlns="http://www.w3.org/2000/svg" xmlns:xlink="http://www.w3.org/1999/xlink" x="0px" y="0px"
	 width="9.295px" height="9.295px" viewBox="0 0 9.295 9.295" enable-background="new 0 0 9.295 9.295" xml:space="preserve">
<path fill="#C1C6DE" d="M4.648,5.04c-1.18,0-2.141-0.96-2.141-2.14c0-1.179,0.961-2.138,2.141-2.138S6.787,1.722,6.787,2.9
	C6.787,4.08,5.828,5.04,4.648,5.04 M4.648,1.739c-0.641,0-1.162,0.521-1.162,1.161c0,0.641,0.521,1.162,1.162,1.162
	S5.811,3.541,5.811,2.9C5.811,2.261,5.289,1.739,4.648,1.739"/>
<path fill="#C1C6DE" d="M7.654,8.047c-0.27,0-0.488-0.219-0.488-0.489c0-1.388-1.129-2.518-2.52-2.518
	c-1.387,0-2.516,1.13-2.516,2.518c0,0.271-0.219,0.489-0.49,0.489c-0.27,0-0.488-0.219-0.488-0.489c0-1.927,1.568-3.495,3.494-3.495
	c1.93,0,3.496,1.568,3.496,3.495C8.143,7.828,7.924,8.047,7.654,8.047"/>
</svg>
